<svg xmlns="http://www.w3.org/2000/svg" width="33.998" height="33.998" viewBox="0 0 33.998 33.998">
  <g id="bill" transform="translate(0 -0.004)">
    <path id="Path_1002" data-name="Path 1002" d="M12.218,24.44h-.5a1.084,1.084,0,0,1-1.042-.743,1.062,1.062,0,0,1,.632-1.311l7.969-3.065a1.063,1.063,0,0,0,.6-1.4C16.729,10.383,15.942,1.09,15.933.981a1.063,1.063,0,0,0-1.943-.5l-1.536,2.3-2.3-1.535a1.063,1.063,0,0,0-1.62.626l-.7,2.787L5.9,3.37A1.063,1.063,0,0,0,4.281,4l-.7,2.787L1.652,5.495A1.063,1.063,0,0,0,0,6.461a72.506,72.506,0,0,0,2.539,13.5A30.827,30.827,0,0,0,6.9,29.422a6.063,6.063,0,0,0,4.887,2.455h.37a3.719,3.719,0,1,0,.056-7.437ZM5.388,13.147a1.063,1.063,0,0,1,.592-1.381l5.312-2.125a1.063,1.063,0,0,1,.789,1.973c-5.753,2.3-5.413,2.2-5.707,2.2A1.063,1.063,0,0,1,5.388,13.147Zm2.444,4.842a1.063,1.063,0,0,1-.789-1.973l5.312-2.125a1.063,1.063,0,0,1,.789,1.973Zm20.854.076c-.277,0,.271-.18-7.41,2.774-.009-.016-5.139,1.965-5.13,1.961a.531.531,0,0,0-.15.9,5.843,5.843,0,0,1-1.263,9.729.3.3,0,0,0,.127.569,5.32,5.32,0,0,0,2.469-.6l11.456-4.717a1.056,1.056,0,0,0,.576-.237c3.1-1.278,2.959-1.184,3.17-1.4A5.322,5.322,0,0,0,28.686,18.065Z" transform="translate(0 0)" fill="#212123"/>
    <path id="Path_1003" data-name="Path 1003" d="M355.941,42.315a1.975,1.975,0,0,1-2.125,0,1.062,1.062,0,0,0-1.5,1.5,3.334,3.334,0,0,0,1.814.872v1.124a1.062,1.062,0,0,0,2.125,0V44.532a3.058,3.058,0,0,0,.16-5.737l-1.631-.676c-.849-.352-1-1.868.72-1.868a1.609,1.609,0,0,1,1.062.311,1.062,1.062,0,1,0,1.5-1.5,3.334,3.334,0,0,0-1.814-.872V33.064a1.062,1.062,0,0,0-2.125,0v1.281a3.058,3.058,0,0,0-.16,5.737l1.631.676A.96.96,0,0,1,355.941,42.315Z" transform="translate(-328.629 -29.873)" fill="#212123"/>
  </g>
</svg>
