<svg xmlns="http://www.w3.org/2000/svg" width="33.511" height="33.512" viewBox="0 0 33.511 33.512">
  <g id="customer-review_1_" data-name="customer-review (1)" transform="translate(0)">
    <path id="Path_1110" data-name="Path 1110" d="M211,243.945A2.945,2.945,0,1,0,213.945,241,2.949,2.949,0,0,0,211,243.945Zm0,0" transform="translate(-197.189 -225.226)" fill="#212123"/>
    <path id="Path_1111" data-name="Path 1111" d="M171.891,361A5.9,5.9,0,0,0,166,366.891v3.992h11.781v-3.992A5.9,5.9,0,0,0,171.891,361Zm0,0" transform="translate(-155.135 -337.372)" fill="#212123"/>
    <path id="Path_1112" data-name="Path 1112" d="M51.891,273.945a2.945,2.945,0,1,0-2.945,2.945A2.949,2.949,0,0,0,51.891,273.945Zm0,0" transform="translate(-42.989 -253.262)" fill="#212123"/>
    <path id="Path_1113" data-name="Path 1113" d="M381.891,273.945a2.945,2.945,0,1,0-2.945,2.945A2.949,2.949,0,0,0,381.891,273.945Zm0,0" transform="translate(-351.39 -253.262)" fill="#212123"/>
    <path id="Path_1114" data-name="Path 1114" d="M4.974,0,3.481,3.521,0,4.012,2.51,6.4,1.933,9.883l3.041-1.59,3.041,1.59L7.438,6.4,9.883,4.012,6.5,3.521Zm0,0" transform="translate(0)" fill="#212123"/>
    <path id="Path_1115" data-name="Path 1115" d="M187.439,3.521,185.909,0l-1.494,3.521L181,4.012,183.445,6.4l-.577,3.486,3.041-1.59,3.041,1.59L188.373,6.4l2.445-2.385Zm0,0" transform="translate(-169.153)" fill="#212123"/>
    <path id="Path_1116" data-name="Path 1116" d="M365.909,0l-1.494,3.521L361,4.012,363.445,6.4l-.577,3.486,3.041-1.59,3.041,1.59L368.373,6.4l2.51-2.385-3.444-.491Zm0,0" transform="translate(-337.372)" fill="#212123"/>
    <path id="Path_1117" data-name="Path 1117" d="M371.378,391a5.84,5.84,0,0,0-3.475,1.156,7.777,7.777,0,0,1,.53,2.771v3.993h8.9v-2.029A5.947,5.947,0,0,0,371.378,391Zm0,0" transform="translate(-343.822 -365.408)" fill="#212123"/>
    <path id="Path_1118" data-name="Path 1118" d="M0,396.891v2.029H8.9v-3.993a7.776,7.776,0,0,1,.53-2.771A5.841,5.841,0,0,0,5.956,391,5.947,5.947,0,0,0,0,396.891Zm0,0" transform="translate(0 -365.408)" fill="#212123"/>
  </g>
</svg>
