<svg id="world" xmlns="http://www.w3.org/2000/svg" width="34.795" height="34.801" viewBox="0 0 34.795 34.801">
  <g id="Group_1755" data-name="Group 1755" transform="translate(0)">
    <path id="Path_975" data-name="Path 975" d="M30.331,7.377l-.521.165-2.773.247L26.255,9.04l-.568-.181L23.48,6.87l-.32-1.035-.429-1.1L21.344,3.488l-1.636-.32-.038.749,1.6,1.564.784.924-.882.461-.718-.212-1.076-.449.037-.867-1.411-.58L17.539,6.8l-1.422.322.141,1.138,1.853.357.32-1.818,1.53.226.711.417h1.141L22.593,9l2.07,2.1-.152.816-1.669-.213-2.885,1.457-2.077,2.491-.27,1.1h-.746l-1.389-.64-1.349.64.336,1.423.587-.677,1.032-.032-.072,1.278.855.25.854.959,1.395-.392,1.593.251,1.85.5.924.109L25.047,22.2l3.023,1.778-1.955,3.735-2.064.959-.783,2.135L20.282,32.8l-.318,1.15A17.377,17.377,0,0,0,30.331,7.377Z" transform="translate(1.518 0.341)" fill="#212123"/>
    <path id="Path_976" data-name="Path 976" d="M19.4,25.682l-1.267-2.35L19.3,20.909l-1.163-.348L16.828,19.25,13.935,18.6l-.96-2.009v1.193h-.423L10.058,14.4V11.626L8.23,8.654l-2.9.517H3.373l-.984-.645,1.255-.995-1.252.289A17.376,17.376,0,0,0,17.4,33.989a18.216,18.216,0,0,0,2.183-.152L19.4,31.729s.8-3.13.8-3.237S19.4,25.682,19.4,25.682Z" transform="translate(-0.004 0.811)" fill="#212123"/>
    <path id="Path_977" data-name="Path 977" d="M6.082,5.611,9.172,5.18,10.6,4.4l1.6.462,2.561-.142.877-1.379,1.279.21,3.107-.291.856-.944,1.207-.806,1.708.257.623-.094A17.343,17.343,0,0,0,3.6,6.326H3.6ZM17.748,1.73,19.525.752l1.141.659L19.015,2.669l-1.577.158-.71-.461Zm-5.263.143.784.327L14.3,1.873l.559.969-2.371.623L11.346,2.8S12.46,2.08,12.486,1.873Z" transform="translate(0.383)" fill="#212123"/>
  </g>
</svg>
