<svg id="_011-instagram" data-name="011-instagram" xmlns="http://www.w3.org/2000/svg" width="30.667" height="30.667" viewBox="0 0 30.667 30.667">
  <path id="Path_573" data-name="Path 573" d="M149.567,137.514a2.916,2.916,0,0,0-1.671-1.671,4.871,4.871,0,0,0-1.635-.3c-.929-.042-1.207-.051-3.558-.051s-2.63.009-3.558.051a4.874,4.874,0,0,0-1.635.3,2.917,2.917,0,0,0-1.671,1.671,4.874,4.874,0,0,0-.3,1.635c-.042.928-.051,1.207-.051,3.558s.009,2.629.051,3.558a4.872,4.872,0,0,0,.3,1.635,2.916,2.916,0,0,0,1.671,1.671,4.865,4.865,0,0,0,1.635.3c.928.042,1.207.051,3.558.051s2.63-.009,3.558-.051a4.865,4.865,0,0,0,1.635-.3,2.916,2.916,0,0,0,1.671-1.671,4.876,4.876,0,0,0,.3-1.635c.042-.929.051-1.207.051-3.558s-.009-2.63-.051-3.558A4.865,4.865,0,0,0,149.567,137.514Zm-6.864,9.714a4.521,4.521,0,1,1,4.521-4.521A4.521,4.521,0,0,1,142.7,147.228Zm4.7-8.165a1.057,1.057,0,1,1,1.057-1.057A1.057,1.057,0,0,1,147.4,139.063Zm0,0" transform="translate(-127.37 -127.373)" fill="#f9f9f9"/>
  <path id="Path_574" data-name="Path 574" d="M212.87,209.935A2.935,2.935,0,1,1,209.935,207,2.935,2.935,0,0,1,212.87,209.935Zm0,0" transform="translate(-194.601 -194.601)" fill="#f9f9f9"/>
  <path id="Path_575" data-name="Path 575" d="M28.455,0H2.212A2.212,2.212,0,0,0,0,2.212V28.455a2.212,2.212,0,0,0,2.212,2.212H28.455a2.212,2.212,0,0,0,2.212-2.212V2.212A2.212,2.212,0,0,0,28.455,0Zm-4.37,18.964a6.46,6.46,0,0,1-.409,2.137A4.5,4.5,0,0,1,21.1,23.676a6.464,6.464,0,0,1-2.137.409c-.939.043-1.239.053-3.63.053s-2.691-.01-3.63-.053a6.464,6.464,0,0,1-2.137-.409A4.5,4.5,0,0,1,6.991,21.1a6.458,6.458,0,0,1-.409-2.137c-.043-.939-.053-1.239-.053-3.63s.01-2.691.053-3.63a6.461,6.461,0,0,1,.409-2.137A4.505,4.505,0,0,1,9.566,6.991,6.466,6.466,0,0,1,11.7,6.582c.939-.043,1.239-.053,3.63-.053s2.691.01,3.63.053a6.467,6.467,0,0,1,2.137.409,4.5,4.5,0,0,1,2.575,2.575,6.459,6.459,0,0,1,.409,2.137c.043.939.053,1.239.053,3.63S24.128,18.025,24.085,18.964Zm0,0" transform="translate(0)" fill="#f9f9f9"/>
</svg>
