<svg xmlns="http://www.w3.org/2000/svg" width="30.667" height="30.667" viewBox="0 0 30.667 30.667">
  <path id="_010-linkedin" data-name="010-linkedin" d="M28.455,0H2.212A2.212,2.212,0,0,0,0,2.212V28.455a2.212,2.212,0,0,0,2.212,2.212H28.455a2.212,2.212,0,0,0,2.212-2.212V2.212A2.212,2.212,0,0,0,28.455,0ZM10.878,23.18H7.144V11.945h3.734ZM9.011,10.411H8.987a1.946,1.946,0,1,1,.049-3.882,1.947,1.947,0,1,1-.025,3.882ZM24.343,23.18H20.609v-6.01c0-1.511-.541-2.541-1.892-2.541A2.044,2.044,0,0,0,16.8,15.994a2.557,2.557,0,0,0-.123.911V23.18H12.945s.049-10.181,0-11.235h3.734v1.591a3.707,3.707,0,0,1,3.365-1.854c2.457,0,4.3,1.606,4.3,5.057Zm0,0" transform="translate(0)" fill="#f9f9f9"/>
</svg>
