<svg id="analytics_1_" data-name="analytics (1)" xmlns="http://www.w3.org/2000/svg" width="14.303" height="14.303" viewBox="0 0 14.303 14.303">
  <g id="Group_1830" data-name="Group 1830" transform="translate(0 4.768)">
    <g id="Group_1829" data-name="Group 1829">
      <path id="Path_1102" data-name="Path 1102" d="M14,179.605h-.3v-8.641a.3.3,0,0,0-.3-.3H11.621a.3.3,0,0,0-.3.3v8.641H10.131V174.54a.3.3,0,0,0-.3-.3H8.045a.3.3,0,0,0-.3.3v5.066H6.555v-6.257a.3.3,0,0,0-.3-.3H4.47a.3.3,0,0,0-.3.3v6.257H2.98v-3.278a.3.3,0,0,0-.3-.3H.894a.3.3,0,0,0-.3.3v3.278H.3a.3.3,0,1,0,0,.6H14a.3.3,0,1,0,0-.6Z" transform="translate(0 -170.666)" fill="#ff8c00"/>
    </g>
  </g>
  <g id="Group_1832" data-name="Group 1832" transform="translate(0.596)">
    <g id="Group_1831" data-name="Group 1831">
      <path id="Path_1103" data-name="Path 1103" d="M33.252,0a1.185,1.185,0,0,0-1.023,1.794L30.278,3.744a1.17,1.17,0,0,0-1.524.278L27.29,3.6c0-.01,0-.018,0-.029a1.192,1.192,0,1,0-2.384,0,1.178,1.178,0,0,0,.105.485L23.152,5.546a1.175,1.175,0,0,0-.627-.183,1.192,1.192,0,1,0,1.192,1.192,1.175,1.175,0,0,0-.154-.574l1.825-1.456a1.177,1.177,0,0,0,1.736-.348l1.381.394a1.129,1.129,0,0,0-.02.2,1.192,1.192,0,1,0,2.215-.6l1.951-1.951a1.174,1.174,0,0,0,.6.169,1.192,1.192,0,1,0,0-2.384Z" transform="translate(-21.333)" fill="#ff8c00"/>
    </g>
  </g>
</svg>
