<svg id="skill-development_1_" data-name="skill-development (1)" xmlns="http://www.w3.org/2000/svg" width="16.303" height="16.303" viewBox="0 0 16.303 16.303">
  <path id="Path_1157" data-name="Path 1157" d="M6.719,249.629v-1.465a1.91,1.91,0,1,1,0-3.821V242.91H4.049l.227-.638a.935.935,0,0,0,.055-.317.955.955,0,1,0-1.91,0,.935.935,0,0,0,.055.317l.227.638H0A7.269,7.269,0,0,0,6.719,249.629Z" transform="translate(0 -233.326)" fill="#ff8c00"/>
  <path id="Path_1158" data-name="Path 1158" d="M3.375,66.512a1.912,1.912,0,0,1,1.91,1.91H6.719v-2.67l.638.227a.955.955,0,1,0,0-1.8l-.638.227V61.76A7.216,7.216,0,0,0,0,68.423H1.465A1.912,1.912,0,0,1,3.375,66.512Z" transform="translate(0 -59.794)" fill="#ff8c00"/>
  <path id="Path_1159" data-name="Path 1159" d="M189.573,301h-1.409a1.91,1.91,0,0,1-3.821,0H182.91v2.67l-.638-.227a.955.955,0,1,0,0,1.8l.638-.227v2.7A7.216,7.216,0,0,0,189.573,301Z" transform="translate(-175.237 -291.416)" fill="#ff8c00"/>
  <path id="Path_1160" data-name="Path 1160" d="M247.687,3.853V1.942h-1.91a1.911,1.911,0,1,0-3.821,0H241V3.375A1.91,1.91,0,1,1,241,7.2V8.629h2.67l-.227.638a.934.934,0,0,0-.055.317.955.955,0,0,0,1.91,0,.935.935,0,0,0-.055-.317l-.227-.638h2.67V7.674a1.94,1.94,0,0,0,1.942-1.91A1.94,1.94,0,0,0,247.687,3.853Z" transform="translate(-233.326)" fill="#ff8c00"/>
</svg>
