<svg xmlns="http://www.w3.org/2000/svg" width="29.091" height="20" viewBox="0 0 29.091 20">
  <g id="credit-card_2_" data-name="credit-card (2)" transform="translate(0 -80)">
    <path id="Path_1161" data-name="Path 1161" d="M29.091,84.716V83.182A3.182,3.182,0,0,0,25.909,80H3.182A3.182,3.182,0,0,0,0,83.182v1.534A.284.284,0,0,0,.284,85H28.807A.284.284,0,0,0,29.091,84.716Z" fill="#fafafa"/>
    <path id="Path_1162" data-name="Path 1162" d="M0,200.284V210a3.182,3.182,0,0,0,3.182,3.182H25.909A3.182,3.182,0,0,0,29.091,210v-9.716a.284.284,0,0,0-.284-.284H.284A.284.284,0,0,0,0,200.284Zm7.273,7.443a.909.909,0,0,1-.909.909H5.455a.909.909,0,0,1-.909-.909v-.909a.909.909,0,0,1,.909-.909h.909a.909.909,0,0,1,.909.909Z" transform="translate(0 -113.182)" fill="#fafafa"/>
  </g>
</svg>
