<svg xmlns="http://www.w3.org/2000/svg" width="35.816" height="35.842" viewBox="0 0 35.816 35.842">
  <g id="XMLID_716_" transform="translate(-0.181)">
    <path id="XMLID_717_" d="M6.011,16.881V15.687a3.651,3.651,0,0,1,7.3,0v1.193h3.724V11.025h3.3a1.544,1.544,0,1,0,0-3.089h-3.3V0H.181V16.881Z" fill="#ff8c00"/>
    <path id="XMLID_718_" d="M217.142,270.091v1.193a3.651,3.651,0,0,1-7.3,0v-1.193h-3.724v5.855h-3.3a1.544,1.544,0,1,0,0,3.089h3.3v7.936h16.855V270.091Z" transform="translate(-186.975 -251.13)" fill="#ff8c00"/>
    <path id="XMLID_33_" d="M11.206,202v3.37h5.83v3.724H15.9a3.651,3.651,0,1,0-.061,7.3h1.193v5.83H.181V205.368H8.117V202a1.544,1.544,0,0,1,3.089,0Z" transform="translate(0 -186.382)" fill="#ff8c00"/>
    <path id="XMLID_724_" d="M270.272,0V5.83h1.193a3.651,3.651,0,1,1,0,7.3h-1.193v3.724h5.83v3.3a1.544,1.544,0,1,0,3.089,0v-3.3h7.936V0Z" transform="translate(-251.13 0)" fill="#ff8c00"/>
  </g>
</svg>
