<svg xmlns="http://www.w3.org/2000/svg" width="34.822" height="40.067" viewBox="0 0 34.822 40.067">
  <g id="network_1_" data-name="network (1)" transform="translate(-27.101 0)">
    <g id="Group_1819" data-name="Group 1819" transform="translate(27.101 0)">
      <path id="Path_1049" data-name="Path 1049" d="M50.8,21.65l4.007.8a3.559,3.559,0,1,0,.3-1.518L51,20.112a5.831,5.831,0,0,0-1.634-4.032l5.321-7.516a4.5,4.5,0,1,0-1.263-.9l-5.269,7.444a5.84,5.84,0,0,0-7.4,1.161L33.833,10.9a3.566,3.566,0,1,0-1,1.187l7.051,5.476a5.841,5.841,0,0,0,1.451,7.008L37.054,30.63a4.805,4.805,0,1,0,1.181,1.011l4.4-6.224a5.846,5.846,0,0,0,4.781.107l5.222,7.714a4.047,4.047,0,1,0,1.26-.9l-5.146-7.6A5.867,5.867,0,0,0,50.8,21.65Z" transform="translate(-27.101 0)" fill="#ff8c00"/>
    </g>
  </g>
</svg>
