<svg xmlns="http://www.w3.org/2000/svg" width="24" height="32" viewBox="0 0 24 32">
  <g id="money-tag" transform="translate(-3)">
    <path id="Path_964" data-name="Path 964" d="M8.789,6H19.477l2.307-1.845a2.305,2.305,0,0,0,.747-2.593A2.3,2.3,0,0,0,20.333,0H7.933a2.3,2.3,0,0,0-2.2,1.561,2.3,2.3,0,0,0,.745,2.592Z" transform="translate(0.867)" fill="#212123"/>
    <path id="Path_965" data-name="Path 965" d="M20.527,6H9.473A23.161,23.161,0,0,0,3,21c0,4.479,2.371,9,7.667,9h9C24.191,30,27,26.551,27,21A23.161,23.161,0,0,0,20.527,6ZM14.493,17h1.013A2.83,2.83,0,0,1,16,22.616v1.049a1,1,0,0,1-2,0v-1H12.667a1,1,0,0,1,0-2h2.84a.833.833,0,0,0,0-1.667H14.493A2.83,2.83,0,0,1,14,13.384V12.333a1,1,0,1,1,2,0v1h1.333a1,1,0,1,1,0,2h-2.84a.833.833,0,0,0,0,1.667Z" transform="translate(0 2)" fill="#212123"/>
  </g>
</svg>
