<svg xmlns="http://www.w3.org/2000/svg" width="31.439" height="31.44" viewBox="0 0 31.439 31.44">
  <g id="customer-review_1_" data-name="customer-review (1)" transform="translate(0)">
    <path id="Path_1110" data-name="Path 1110" d="M211,243.763A2.763,2.763,0,1,0,213.763,241,2.766,2.766,0,0,0,211,243.763Zm0,0" transform="translate(-198.043 -226.201)" fill="#333"/>
    <path id="Path_1111" data-name="Path 1111" d="M171.526,361A5.532,5.532,0,0,0,166,366.527v3.746h11.053v-3.746A5.532,5.532,0,0,0,171.526,361Zm0,0" transform="translate(-155.807 -338.833)" fill="#333"/>
    <path id="Path_1112" data-name="Path 1112" d="M51.526,273.763a2.763,2.763,0,1,0-2.763,2.763A2.766,2.766,0,0,0,51.526,273.763Zm0,0" transform="translate(-43.175 -254.359)" fill="#333"/>
    <path id="Path_1113" data-name="Path 1113" d="M381.526,273.763a2.763,2.763,0,1,0-2.763,2.763A2.766,2.766,0,0,0,381.526,273.763Zm0,0" transform="translate(-352.911 -254.359)" fill="#333"/>
    <path id="Path_1114" data-name="Path 1114" d="M4.667,0l-1.4,3.3L0,3.764,2.355,6,1.814,9.272,4.667,7.781,7.52,9.272,6.978,6,9.272,3.764,6.1,3.3Zm0,0" transform="translate(0)" fill="#333"/>
    <path id="Path_1115" data-name="Path 1115" d="M187.041,3.3,185.605,0l-1.4,3.3-3.2.461L183.294,6l-.542,3.271,2.853-1.491,2.853,1.491L187.917,6l2.294-2.237Zm0,0" transform="translate(-169.886)" fill="#333"/>
    <path id="Path_1116" data-name="Path 1116" d="M365.605,0l-1.4,3.3-3.2.461L363.294,6l-.542,3.271,2.853-1.491,2.853,1.491L367.917,6l2.355-2.237L367.041,3.3Zm0,0" transform="translate(-338.833)" fill="#333"/>
    <path id="Path_1117" data-name="Path 1117" d="M371.163,391a5.479,5.479,0,0,0-3.26,1.084,7.3,7.3,0,0,1,.5,2.6v3.746h8.351v-1.9A5.579,5.579,0,0,0,371.163,391Zm0,0" transform="translate(-345.311 -366.99)" fill="#333"/>
    <path id="Path_1118" data-name="Path 1118" d="M0,396.527v1.9H8.351v-3.746a7.3,7.3,0,0,1,.5-2.6A5.479,5.479,0,0,0,5.588,391,5.579,5.579,0,0,0,0,396.527Zm0,0" transform="translate(0 -366.99)" fill="#333"/>
  </g>
</svg>
