<svg xmlns="http://www.w3.org/2000/svg" width="27.753" height="31.933" viewBox="0 0 27.753 31.933">
  <g id="network_1_" data-name="network (1)" transform="translate(-27.101 0)">
    <g id="Group_1819" data-name="Group 1819" transform="translate(27.101 0)">
      <path id="Path_1049" data-name="Path 1049" d="M45.987,17.255l3.194.634a2.837,2.837,0,1,0,.243-1.21l-3.276-.65a4.648,4.648,0,0,0-1.3-3.213l4.241-5.991a3.586,3.586,0,1,0-1.007-.714l-4.2,5.933a4.655,4.655,0,0,0-5.9.925L32.466,8.688a2.842,2.842,0,1,0-.794.946L37.292,14a4.655,4.655,0,0,0,1.157,5.586l-3.415,4.829a3.83,3.83,0,1,0,.941.806l3.507-4.96a4.66,4.66,0,0,0,3.811.086l4.162,6.148a3.225,3.225,0,1,0,1-.718l-4.1-6.059A4.676,4.676,0,0,0,45.987,17.255Z" transform="translate(-27.101 0)" fill="#333"/>
    </g>
  </g>
</svg>
