<svg xmlns="http://www.w3.org/2000/svg" width="46.75" height="47.5" viewBox="0 0 46.75 47.5">
  <g id="Group_1942" data-name="Group 1942" transform="translate(-3.3 -2.5)">
    <path id="Path_1236" data-name="Path 1236" d="M17.4,32.75A7.05,7.05,0,1,0,9.45,39.7v5a4.81,4.81,0,0,0-1-1.6C7,41.65,4.6,41.55,3.7,41.55a.342.342,0,0,0-.35.35A7.05,7.05,0,0,0,4.9,46.65,6.633,6.633,0,0,0,9.45,48.2v4.5H6.2a.949.949,0,0,0-.95.95v7a.949.949,0,0,0,.95.95h8.3a.949.949,0,0,0,.95-.95v-7a.949.949,0,0,0-.95-.95H11.3V48.2a6.492,6.492,0,0,0,4.55-1.55C17.3,45.2,17.4,42.8,17.4,41.9a.342.342,0,0,0-.35-.35A7.05,7.05,0,0,0,12.3,43.1a4.526,4.526,0,0,0-1,1.6v-5A6.978,6.978,0,0,0,17.4,32.75ZM11,36.2v1.1H9.7V36.2a1.85,1.85,0,0,1-1.65-1.85h1.3a.608.608,0,0,0,.6.6h.75a.8.8,0,1,0,0-1.6H10a2.062,2.062,0,0,1-.3-4.1v-1.1H11v1.1a1.85,1.85,0,0,1,1.65,1.85h-1.3a.578.578,0,0,0-.6-.6H10a.8.8,0,1,0,0,1.6h.7a2.062,2.062,0,0,1,.3,4.1Z" transform="translate(0 -11.6)" fill="#ff8c00"/>
    <path id="Path_1237" data-name="Path 1237" d="M50,21.15a7.05,7.05,0,1,0-7.95,6.95v5a4.81,4.81,0,0,0-1-1.6c-1.45-1.45-3.85-1.55-4.75-1.55a.342.342,0,0,0-.35.35,7.05,7.05,0,0,0,1.55,4.75,6.633,6.633,0,0,0,4.55,1.55v4.5h-3.2a.949.949,0,0,0-.95.95v12.8a.949.949,0,0,0,.95.95h8.3a.949.949,0,0,0,.95-.95V42.05a.949.949,0,0,0-.95-.95h-3.2V36.6a6.492,6.492,0,0,0,4.55-1.55c1.45-1.45,1.55-3.85,1.55-4.75a.342.342,0,0,0-.35-.35,7.05,7.05,0,0,0-4.75,1.55,4.526,4.526,0,0,0-1,1.6v-5A6.977,6.977,0,0,0,50,21.15ZM40.65,22.8h1.3a.608.608,0,0,0,.6.6h.75a.8.8,0,1,0,0-1.6h-.7a2.062,2.062,0,0,1-.3-4.1V16.6h1.3v1.1a1.85,1.85,0,0,1,1.65,1.85h-1.3a.578.578,0,0,0-.6-.6H42.6a.8.8,0,0,0,0,1.6h.7a2.062,2.062,0,0,1,.3,4.1v1.1H42.3v-1.1A1.927,1.927,0,0,1,40.65,22.8Z" transform="translate(-16.3 -5.8)" fill="#ff8c00"/>
    <path id="Path_1238" data-name="Path 1238" d="M82.25,18.35A7.05,7.05,0,0,0,77.5,19.9a4.526,4.526,0,0,0-1,1.6v-5a7.075,7.075,0,1,0-1.85,0v5a4.81,4.81,0,0,0-1-1.6c-1.45-1.45-3.85-1.55-4.75-1.55a.342.342,0,0,0-.35.35,7.05,7.05,0,0,0,1.55,4.75A6.633,6.633,0,0,0,74.65,25v4.5h-3.2a.949.949,0,0,0-.95.95v18.6a.949.949,0,0,0,.95.95h8.3a.949.949,0,0,0,.95-.95V30.45a.949.949,0,0,0-.95-.95h-3.2V25a6.492,6.492,0,0,0,4.55-1.55c1.45-1.45,1.55-3.85,1.55-4.75A.424.424,0,0,0,82.25,18.35Zm-9-7.15h1.3a.608.608,0,0,0,.6.6h.75a.8.8,0,1,0,0-1.6h-.7a2.062,2.062,0,0,1-.3-4.1V5h1.3V6.1a1.85,1.85,0,0,1,1.65,1.85h-1.3a.578.578,0,0,0-.6-.6H75.2a.8.8,0,1,0,0,1.6h.7a2.062,2.062,0,0,1,.3,4.1v1.1H74.9v-1.1A1.927,1.927,0,0,1,73.25,11.2Z" transform="translate(-32.6)" fill="#ff8c00"/>
  </g>
</svg>
