<svg xmlns="http://www.w3.org/2000/svg" width="44.139" height="42.001" viewBox="0 0 44.139 42.001">
  <g id="Group_1944" data-name="Group 1944" transform="translate(-2.5 -4.8)">
    <path id="Path_1242" data-name="Path 1242" d="M49.1,37.636V23.651A1.963,1.963,0,0,0,47.15,21.7h-7.9A1.963,1.963,0,0,0,37.3,23.651V37.636a10.013,10.013,0,0,1,5.9-1.858A9.7,9.7,0,0,1,49.1,37.636Z" transform="translate(-18.631 -9.048)" fill="#ff8c00"/>
    <path id="Path_1243" data-name="Path 1243" d="M12.3,38.5H4.451A1.963,1.963,0,0,0,2.5,40.451v12.08a1.963,1.963,0,0,0,1.951,1.951H12.3a1.963,1.963,0,0,0,1.951-1.951V40.451A1.963,1.963,0,0,0,12.3,38.5Z" transform="translate(0 -18.042)" fill="#ff8c00"/>
    <path id="Path_1244" data-name="Path 1244" d="M82,4.8H74.151A1.963,1.963,0,0,0,72.2,6.751V34.489a1.963,1.963,0,0,0,1.951,1.951H82a1.963,1.963,0,0,0,1.951-1.951V6.751A1.963,1.963,0,0,0,82,4.8Z" transform="translate(-37.316)" fill="#ff8c00"/>
    <path id="Path_1245" data-name="Path 1245" d="M47.92,68.979a7.066,7.066,0,0,0,.976-3.531A7.248,7.248,0,1,0,41.648,72.7a7.538,7.538,0,0,0,3.531-.929l3.066,3.066a2.021,2.021,0,0,0,2.788,0,2.021,2.021,0,0,0,0-2.788Zm-9.71-3.531a3.438,3.438,0,1,1,3.438,3.438A3.43,3.43,0,0,1,38.21,65.448Z" transform="translate(-17.079 -28.59)" fill="#ff8c00"/>
  </g>
</svg>
