<svg xmlns="http://www.w3.org/2000/svg" width="52.516" height="44" viewBox="0 0 52.516 44">
  <g id="Group_1943" data-name="Group 1943" transform="translate(-768 -4658)">
    <path id="Path_1239" data-name="Path 1239" d="M61.1,15.387a.71.71,0,0,0,.71-.859A7.1,7.1,0,0,0,54.873,9H32.163a7.1,7.1,0,0,0-6.919,5.528.71.71,0,0,0,.71.859Z" transform="translate(758.547 4649)" fill="#ff8c00"/>
    <path id="Path_1240" data-name="Path 1240" d="M61.194,26H25.71a.71.71,0,0,0-.71.71v2.129a.71.71,0,0,0,.71.71H39.194a9.935,9.935,0,0,1,9.935,9.226.71.71,0,0,0,.71.71h4.968a7.1,7.1,0,0,0,7.1-7.1V26.71A.71.71,0,0,0,61.194,26Z" transform="translate(758.613 4644.064)" fill="#ff8c00"/>
    <path id="Path_1241" data-name="Path 1241" d="M32.806,35H10.1A7.1,7.1,0,0,0,3,42.1V53.452a7.1,7.1,0,0,0,7.1,7.1h22.71a7.1,7.1,0,0,0,7.1-7.1V42.1A7.1,7.1,0,0,0,32.806,35ZM12.786,51.954l-1.419,2.839A1.419,1.419,0,0,1,8.826,53.53l1.419-2.839a1.419,1.419,0,1,1,2.541,1.263Zm4.968,0-1.419,2.839a1.419,1.419,0,0,1-2.541-1.263l1.419-2.839a1.419,1.419,0,1,1,2.541,1.263Zm.859-8.438a2.839,2.839,0,0,1-2.839,2.839H11.516a2.839,2.839,0,0,1-2.839-2.839v-.71a2.839,2.839,0,0,1,2.839-2.839h4.258a2.839,2.839,0,0,1,2.839,2.839Zm4.109,8.438L21.3,54.793a1.419,1.419,0,0,1-2.541-1.263l1.419-2.839a1.419,1.419,0,1,1,2.541,1.263Z" transform="translate(765 4641.452)" fill="#ff8c00"/>
  </g>
</svg>
