<svg xmlns="http://www.w3.org/2000/svg" width="42.07" height="42.119" viewBox="0 0 42.07 42.119">
  <path id="Path_1230" data-name="Path 1230" d="M34.12,6.526A21.391,21.391,0,0,0,8.578,14.058,20.178,20.178,0,0,0,10.823,39.6c-.468,2.012-1.4,4.444-3.275,5.66a1.028,1.028,0,0,0-.421.982,1.007,1.007,0,0,0,.8.748c.094,0,.8.094,1.918.094A15.137,15.137,0,0,0,18.5,44.559a21.478,21.478,0,0,0,7.532,1.357h.047A20.951,20.951,0,0,0,46.7,29.448,20.41,20.41,0,0,0,34.12,6.526ZM18.682,19.812H29.255a.936.936,0,0,1,0,1.871H18.682a.936.936,0,0,1,0-1.871ZM35.617,30.15H18.682a.936.936,0,1,1,0-1.871H35.617a.936.936,0,1,1,0,1.871Z" transform="translate(-5.042 -4.966)" fill="#ff8c00"/>
</svg>
