<svg xmlns="http://www.w3.org/2000/svg" width="46.409" height="46.416" viewBox="0 0 46.409 46.416">
  <g id="world" transform="translate(-0.004)">
    <g id="Group_1755" data-name="Group 1755" transform="translate(0.004)">
      <path id="Path_975" data-name="Path 975" d="M35.739,8.782,35.045,9l-3.7.329L30.3,11l-.758-.241L26.6,8.106l-.427-1.38L25.6,5.254l-1.85-1.659L21.57,3.168l-.05,1,2.138,2.086L24.7,7.485,23.528,8.1l-.957-.282-1.435-.6.049-1.157L19.3,5.288l-.625,2.72-1.9.43.188,1.517,2.472.476.427-2.425,2.04.3.949.556h1.522l1.042,2.086,2.761,2.8-.2,1.089-2.227-.284L21.9,16.5l-2.77,3.323-.361,1.472h-.994l-1.853-.854-1.8.854.448,1.9.783-.9,1.377-.043-.1,1.7,1.141.334,1.139,1.279,1.86-.523,2.125.335,2.467.663,1.232.145,2.089,2.371,4.032,2.371L30.116,35.91,27.364,37.19l-1.045,2.847L22.336,42.7l-.424,1.534A23.177,23.177,0,0,0,35.739,8.782Z" transform="translate(6.739 1.513)" fill="#fafafa"/>
      <path id="Path_976" data-name="Path 976" d="M25.876,31.74l-1.69-3.134,1.551-3.233-1.551-.464-1.742-1.749-3.859-.866L17.3,19.615v1.591h-.564L13.413,16.7v-3.7L10.976,9.029,7.1,9.719H4.5l-1.312-.86L4.859,7.532l-1.67.386a23.176,23.176,0,0,0,20.018,34.9,24.3,24.3,0,0,0,2.912-.2l-.242-2.812s1.065-4.175,1.065-4.317S25.876,31.74,25.876,31.74Z" transform="translate(-0.004 3.596)" fill="#fafafa"/>
      <path id="Path_977" data-name="Path 977" d="M6.911,7.483l4.122-.575,1.9-1.042,2.138.616,3.416-.189,1.17-1.839,1.706.281,4.144-.389L26.65,3.088l1.61-1.076,2.278.343.83-.126A23.132,23.132,0,0,0,3.6,8.438h.012ZM22.472,2.308,24.842,1l1.522.879-2.2,1.677-2.1.211-.947-.615ZM15.453,2.5l1.046.436,1.37-.436.746,1.293-3.162.83-1.52-.889S15.419,2.775,15.453,2.5Z" transform="translate(1.711)" fill="#fafafa"/>
    </g>
  </g>
</svg>
