<svg xmlns="http://www.w3.org/2000/svg" width="45" height="45" viewBox="0 0 45 45">
  <g id="customer-review" transform="translate(0)">
    <path id="Path_966" data-name="Path 966" d="M211,244.955A3.955,3.955,0,1,0,214.955,241,3.96,3.96,0,0,0,211,244.955Zm0,0" transform="translate(-192.455 -219.818)" fill="#fafafa"/>
    <path id="Path_967" data-name="Path 967" d="M173.91,361a7.919,7.919,0,0,0-7.91,7.91v5.361h15.82V368.91A7.919,7.919,0,0,0,173.91,361Zm0,0" transform="translate(-151.41 -329.271)" fill="#fafafa"/>
    <path id="Path_968" data-name="Path 968" d="M53.91,274.955a3.955,3.955,0,1,0-3.955,3.955A3.96,3.96,0,0,0,53.91,274.955Zm0,0" transform="translate(-41.957 -247.182)" fill="#fafafa"/>
    <path id="Path_969" data-name="Path 969" d="M383.91,274.955a3.955,3.955,0,1,0-3.955,3.955A3.96,3.96,0,0,0,383.91,274.955Zm0,0" transform="translate(-342.953 -247.182)" fill="#fafafa"/>
    <path id="Path_970" data-name="Path 970" d="M6.68,0,4.674,4.729,0,5.388l3.371,3.2L2.6,13.271,6.68,11.137l4.084,2.134L9.988,8.59l3.283-3.2L8.734,4.729Zm0,0" transform="translate(0)" fill="#fafafa"/>
    <path id="Path_971" data-name="Path 971" d="M189.647,4.729,187.592,0l-2.006,4.729L181,5.388l3.283,3.2-.775,4.682,4.084-2.134,4.084,2.134L190.9,8.59l3.283-3.2Zm0,0" transform="translate(-165.092)" fill="#fafafa"/>
    <path id="Path_972" data-name="Path 972" d="M367.592,0l-2.006,4.729L361,5.388l3.283,3.2-.775,4.682,4.084-2.134,4.084,2.134L370.9,8.59l3.371-3.2-4.625-.659Zm0,0" transform="translate(-329.272)" fill="#fafafa"/>
    <path id="Path_973" data-name="Path 973" d="M372.569,391a7.844,7.844,0,0,0-4.667,1.552,10.441,10.441,0,0,1,.712,3.721v5.361h11.953V398.91A7.985,7.985,0,0,0,372.569,391Zm0,0" transform="translate(-335.567 -356.635)" fill="#fafafa"/>
    <path id="Path_974" data-name="Path 974" d="M0,398.91v2.725H11.953v-5.361a10.441,10.441,0,0,1,.712-3.721A7.844,7.844,0,0,0,8,391a7.985,7.985,0,0,0-8,7.91Zm0,0" transform="translate(0 -356.635)" fill="#fafafa"/>
  </g>
</svg>
