<svg xmlns="http://www.w3.org/2000/svg" width="51.797" height="52.255" viewBox="0 0 51.797 52.255">
  <g id="leadership" transform="translate(-2.102)">
    <g id="Group_1753" data-name="Group 1753" transform="translate(2.102 7.838)">
      <path id="Path_957" data-name="Path 957" d="M26.03,127.651H20.8V122.87l12.55-8.962L29.7,109.04,17.921,117.2H9.09l-5.879,6.541a4.355,4.355,0,0,0,.174,5.992l5.356,5.356,1.611-2.29v16.626H17.32V134.619h6.1v6.1h6.967v-8.709a4.355,4.355,0,0,0-4.355-4.355Zm-15.676.592L8.96,126.78l1.393-1.393Z" transform="translate(-2.102 -105.008)" fill="#fafafa"/>
      <circle id="Ellipse_124" data-name="Ellipse 124" cx="6.096" cy="6.096" r="6.096" transform="translate(6.51)" fill="#fafafa"/>
    </g>
    <path id="Path_958" data-name="Path 958" d="M165.9,384h19.16v10.451H165.9Z" transform="translate(-145.964 -342.196)" fill="#fafafa"/>
    <path id="Path_959" data-name="Path 959" d="M357.735,0h-1.742a6.1,6.1,0,0,1-6.1,6.1V7.838a6.1,6.1,0,0,1,6.1,6.1h1.742a6.1,6.1,0,0,1,6.1-6.1V6.1A6.1,6.1,0,0,1,357.735,0Z" transform="translate(-309.933)" fill="#fafafa"/>
    <g id="Group_1754" data-name="Group 1754" transform="translate(29 9.725)">
      <path id="Path_960" data-name="Path 960" d="M249.182,203.312l2.373-1.742,1.03,1.4-2.373,1.741Z" transform="translate(-249.182 -189.351)" fill="#fafafa"/>
      <path id="Path_961" data-name="Path 961" d="M289.214,135.942l8.706-6.39,1.031,1.4-8.706,6.39Z" transform="translate(-284.856 -125.174)" fill="#fafafa"/>
      <path id="Path_962" data-name="Path 962" d="M289.441,92.815l5.225-3.483.966,1.449-5.225,3.483Z" transform="translate(-285.058 -89.332)" fill="#fafafa"/>
    </g>
    <path id="Path_963" data-name="Path 963" d="M85.9,184l3.484,6.1,3.484-6.1Z" transform="translate(-74.673 -163.969)" fill="#ff8c00"/>
  </g>
</svg>
