<svg id="tax" xmlns="http://www.w3.org/2000/svg" width="17.49" height="18.412" viewBox="0 0 17.49 18.412">
  <path id="Path_1121" data-name="Path 1121" d="M127.681,144.166a5.045,5.045,0,1,0,5.045-5.045A5.045,5.045,0,0,0,127.681,144.166Zm3.074-1.97a.671.671,0,1,1-.2.475A.677.677,0,0,1,130.755,142.2Zm3.941,3.94a.671.671,0,1,1,.2-.475A.677.677,0,0,1,134.7,146.136Zm-.009-3.931a.672.672,0,0,1,0,.95l-2.973,2.973a.672.672,0,1,1-.95-.95l2.973-2.973A.672.672,0,0,1,134.687,142.2Z" transform="translate(-120.281 -130.904)" fill="#e2e2e2"/>
  <path id="Path_1122" data-name="Path 1122" d="M19.142,13.467A6.271,6.271,0,0,1,25.53,7.335q.175,0,.348.009V.645A.659.659,0,0,0,25.206,0H13.757a.659.659,0,0,0-.672.645V17.767a.659.659,0,0,0,.672.645h8A6.053,6.053,0,0,1,19.142,13.467ZM16.883,3.425h4.756a.645.645,0,1,1,0,1.289H16.883a.645.645,0,1,1,0-1.289Zm0,3.425h4.756a.645.645,0,1,1,0,1.289H16.883a.645.645,0,1,1,0-1.289Zm1.189,4.714H16.883a.645.645,0,1,1,0-1.289h1.189a.645.645,0,1,1,0,1.289Z" transform="translate(-13.085 0)" fill="#e2e2e2"/>
</svg>
