<svg xmlns="http://www.w3.org/2000/svg" width="15.171" height="15.171" viewBox="0 0 15.171 15.171">
  <g id="analytics_1_" data-name="analytics (1)" transform="translate(0)">
    <g id="Group_1830" data-name="Group 1830" transform="translate(0 5.057)">
      <g id="Group_1829" data-name="Group 1829">
        <path id="Path_1102" data-name="Path 1102" d="M14.855,180.148h-.316v-9.166a.316.316,0,0,0-.316-.316h-1.9a.316.316,0,0,0-.316.316v9.166H10.746v-5.373a.316.316,0,0,0-.316-.316h-1.9a.316.316,0,0,0-.316.316v5.373H6.953v-6.637a.316.316,0,0,0-.316-.316h-1.9a.316.316,0,0,0-.316.316v6.637H3.161v-3.477a.316.316,0,0,0-.316-.316H.948a.316.316,0,0,0-.316.316v3.477H.316a.316.316,0,0,0,0,.632H14.855a.316.316,0,1,0,0-.632Z" transform="translate(0 -170.666)" fill="#e2e2e2"/>
      </g>
    </g>
    <g id="Group_1832" data-name="Group 1832" transform="translate(0.632)">
      <g id="Group_1831" data-name="Group 1831">
        <path id="Path_1103" data-name="Path 1103" d="M33.976,0A1.257,1.257,0,0,0,32.89,1.9L30.821,3.972a1.241,1.241,0,0,0-1.617.295l-1.553-.443c0-.01,0-.02,0-.03a1.264,1.264,0,1,0-2.529,0,1.249,1.249,0,0,0,.112.515L23.262,5.883a1.247,1.247,0,0,0-.665-.194,1.264,1.264,0,1,0,1.264,1.264,1.247,1.247,0,0,0-.164-.609L25.634,4.8a1.248,1.248,0,0,0,1.841-.369l1.465.418a1.2,1.2,0,0,0-.021.209,1.264,1.264,0,1,0,2.35-.638l2.07-2.07a1.246,1.246,0,0,0,.638.18,1.264,1.264,0,0,0,0-2.529Z" transform="translate(-21.333)" fill="#e2e2e2"/>
      </g>
    </g>
  </g>
</svg>
