<svg xmlns="http://www.w3.org/2000/svg" width="16.745" height="16.745" viewBox="0 0 16.745 16.745">
  <path id="Icon_material-shopping-cart" data-name="Icon material-shopping-cart" d="M6.523,16.4A1.674,1.674,0,1,0,8.2,18.07,1.672,1.672,0,0,0,6.523,16.4ZM1.5,3V4.674H3.174l3.014,6.355L5.058,13.08a1.619,1.619,0,0,0-.209.8,1.679,1.679,0,0,0,1.674,1.674H16.57V13.884h-9.7a.207.207,0,0,1-.209-.209l.025-.1.754-1.365h6.237a1.667,1.667,0,0,0,1.465-.862l3-5.434a.818.818,0,0,0,.1-.4.84.84,0,0,0-.837-.837H5.025L4.238,3ZM14.9,16.4A1.674,1.674,0,1,0,16.57,18.07,1.672,1.672,0,0,0,14.9,16.4Z" transform="translate(-1.5 -3)" fill="#e2e2e2"/>
</svg>
