<svg xmlns="http://www.w3.org/2000/svg" width="25.2" height="25.218" viewBox="0 0 25.2 25.218">
  <g id="XMLID_716_" transform="translate(-0.181)">
    <path id="XMLID_717_" d="M4.283,11.877v-.84a2.569,2.569,0,0,1,5.137,0v.84h2.62V7.757h2.322a1.087,1.087,0,1,0,0-2.173H12.04V0H.181V11.877Z" fill="#ff8c00"/>
    <path id="XMLID_718_" d="M212.439,270.091v.84a2.569,2.569,0,1,1-5.137,0v-.84h-2.62v4.12H202.36a1.087,1.087,0,1,0,0,2.173h2.322v5.584h11.859V270.091Z" transform="translate(-191.159 -256.75)" fill="#ff8c00"/>
    <path id="XMLID_33_" d="M7.938,201.541v2.371h4.1v2.62h-.8a2.569,2.569,0,1,0-.043,5.137h.84v4.1H.181V203.912H5.765v-2.371a1.087,1.087,0,0,1,2.173,0Z" transform="translate(0 -190.553)" fill="#ff8c00"/>
    <path id="XMLID_724_" d="M270.272,0V4.1h.84a2.569,2.569,0,1,1,0,5.137h-.84v2.62h4.1v2.322a1.087,1.087,0,1,0,2.173,0V11.859h5.584V0Z" transform="translate(-256.75 0)" fill="#ff8c00"/>
  </g>
</svg>
