<svg xmlns="http://www.w3.org/2000/svg" width="13.576" height="14.512" viewBox="0 0 13.576 14.512">
  <g id="test" transform="translate(0)">
    <path id="Path_1108" data-name="Path 1108" d="M259.873,274a3.373,3.373,0,1,0,3.4,3.373A3.377,3.377,0,0,0,259.873,274Zm1.035,2.965-1.134,1.361a.425.425,0,0,1-.327.153l-.049,0a.425.425,0,0,1-.331-.232l-.453-.907a.425.425,0,1,1,.761-.38l.163.326.718-.861a.425.425,0,1,1,.653.544Z" transform="translate(-249.698 -266.234)" fill="#e2e2e2"/>
    <path id="Path_1109" data-name="Path 1109" d="M26.492,2.422,24.767.638l0,0A2.139,2.139,0,0,0,23.248,0H17.775A1.277,1.277,0,0,0,16.5,1.275V12.3a1.277,1.277,0,0,0,1.275,1.275h5.453a4.221,4.221,0,0,1,3.447-6.661q.215,0,.425.021V3.911a2.114,2.114,0,0,0-.608-1.489ZM21.007,9.495H18.739a.425.425,0,0,1,0-.85h2.267a.425.425,0,0,1,0,.85Zm0-2.267H18.739a.425.425,0,0,1,0-.85h2.267a.425.425,0,0,1,0,.85Zm0-2.267H18.739a.425.425,0,0,1,0-.85h2.267a.425.425,0,0,1,0,.85Zm2.721,2.267h-.453a.425.425,0,0,1,0-.85h.453a.425.425,0,0,1,0,.85Zm0-2.267h-.453a.425.425,0,0,1,0-.85h.453a.425.425,0,0,1,0,.85Z" transform="translate(-16.5 0)" fill="#e2e2e2"/>
  </g>
</svg>
