<svg id="ticket" xmlns="http://www.w3.org/2000/svg" width="13.595" height="18.177" viewBox="0 0 13.595 18.177">
  <path id="Path_1119" data-name="Path 1119" d="M73.952,4.164V0H64.521V18.177l1.133-.286,1.133.286,1.133-.286,1.133.286,1.133-.286,1.133.286,1.133-.286,1.133.286,1.133-.286,1.133.286,1.133-.286,1.133.286V4.164Zm-.688,11.611H66.238V14.71h7.027Zm0-2.289H66.238V12.421h7.027Zm0-2.289H66.238V10.132h7.027Zm-1.945-2.78A2.516,2.516,0,1,1,73.835,5.9,2.519,2.519,0,0,1,71.319,8.418Zm4.195,7.357H74.448V14.71h1.065Zm0-2.289H74.448V12.421h1.065Zm0-2.289H74.448V10.132h1.065Z" transform="translate(-64.521)" fill="#e2e2e2"/>
  <ellipse id="Ellipse_150" data-name="Ellipse 150" cx="1.451" cy="1.451" rx="1.451" ry="1.451" transform="translate(5.347 4.45)" fill="#e2e2e2"/>
  <path id="Path_1120" data-name="Path 1120" d="M360.184,15v2.567h2.567Z" transform="translate(-349.688 -14.467)" fill="#e2e2e2"/>
</svg>
