<svg id="credit-card_1_" data-name="credit-card (1)" xmlns="http://www.w3.org/2000/svg" width="19.829" height="16.017" viewBox="0 0 19.829 16.017">
  <path id="Path_1124" data-name="Path 1124" d="M431.236,263.189h3.128v2h-3.128Z" transform="translate(-414.535 -254.902)" fill="#e2e2e2"/>
  <path id="Path_1125" data-name="Path 1125" d="M125.342,53.823v-4.6H109.764v4.6Zm-10.933-1.867H111.3V50.794h3.11Z" transform="translate(-105.513 -49.22)" fill="#e2e2e2"/>
  <path id="Path_1126" data-name="Path 1126" d="M431.236,198.073h3.128v1.36h-3.128Z" transform="translate(-414.535 -192.308)" fill="#e2e2e2"/>
  <path id="Path_1127" data-name="Path 1127" d="M81.094,272.045h.939v.939h-.939Z" transform="translate(-77.953 -263.415)" fill="#e2e2e2"/>
  <path id="Path_1128" data-name="Path 1128" d="M0,197.073v10.29H15.578v-10.29Zm12.641,1.742H13.8v1.162H12.641ZM5.2,205.405H2.016v-1.162H5.2Zm-3.226-3.327v-3.263H5.242v3.263ZM9.5,205.405H6.386v-1.162H9.5Zm4.307,0H10.649v-1.162H13.8Z" transform="translate(0 -191.347)" fill="#e2e2e2"/>
</svg>
