<svg xmlns="http://www.w3.org/2000/svg" width="14.652" height="14.652" viewBox="0 0 14.652 14.652">
  <g id="goal_1_" data-name="goal (1)" transform="translate(0)">
    <path id="Path_1093" data-name="Path 1093" d="M177.77,175.045a2.318,2.318,0,1,0,1.821,1.821l-1.363,1.363a1.288,1.288,0,0,1-1.821-1.821Zm0,0" transform="translate(-169.992 -169.992)" fill="#e2e2e2"/>
    <path id="Path_1094" data-name="Path 1094" d="M14,4.3l-.924.924a1.29,1.29,0,0,1-.309.229A5.752,5.752,0,1,1,9.2,1.889,1.288,1.288,0,0,1,9.43,1.58l.923-.923A7.328,7.328,0,1,0,14,4.3Zm0,0" transform="translate(0 0)" fill="#e2e2e2"/>
    <path id="Path_1095" data-name="Path 1095" d="M91.717,86.249l-.078-.927a4.894,4.894,0,1,0,2.827,2.827l-.927-.078-.681.681a3.177,3.177,0,1,1-1.821-1.821Zm0,0" transform="translate(-82.567 -82.567)" fill="#e2e2e2"/>
    <path id="Path_1096" data-name="Path 1096" d="M244.016,10.646l.125,1.481-3.016,3.016a.429.429,0,1,0,.607.607l3.016-3.016,1.481.125.036,0a.429.429,0,0,0,.3-.126l1.821-1.821a.429.429,0,0,0-.267-.731l-1.318-.111-.111-1.318a.429.429,0,0,0-.731-.268l-1.821,1.821a.429.429,0,0,0-.124.34Zm0,0" transform="translate(-234.103 -8.121)" fill="#e2e2e2"/>
  </g>
</svg>
