<svg xmlns="http://www.w3.org/2000/svg" width="16.101" height="16.101" viewBox="0 0 16.101 16.101">
  <g id="bill" transform="translate(0 -0.004)">
    <path id="Path_1002" data-name="Path 1002" d="M5.786,11.576H5.548a.513.513,0,0,1-.493-.352.5.5,0,0,1,.3-.621L9.128,9.152a.5.5,0,0,0,.283-.665A30.879,30.879,0,0,1,7.545.466a.5.5,0,0,0-.92-.239L5.9,1.319,4.807.592a.5.5,0,0,0-.767.3l-.33,1.32L2.795,1.6a.5.5,0,0,0-.767.3L1.7,3.214.782,2.6A.5.5,0,0,0,0,3.062,34.338,34.338,0,0,0,1.2,9.456a14.6,14.6,0,0,0,2.065,4.48A2.871,2.871,0,0,0,5.584,15.1h.175a1.761,1.761,0,1,0,.027-3.522ZM2.551,6.228a.5.5,0,0,1,.281-.654L5.348,4.568a.5.5,0,0,1,.374.935,15.331,15.331,0,0,1-2.7,1.042A.5.5,0,0,1,2.551,6.228ZM3.709,8.522a.5.5,0,0,1-.374-.935L5.851,6.581a.5.5,0,1,1,.374.935Zm9.876.036c-.131,0,.128-.085-3.509,1.314,0-.007-2.434.93-2.43.929a.252.252,0,0,0-.071.427,2.767,2.767,0,0,1-.6,4.607.142.142,0,0,0,.06.27,2.519,2.519,0,0,0,1.169-.284l5.426-2.234a.5.5,0,0,0,.273-.112c1.47-.605,1.4-.561,1.5-.665A2.52,2.52,0,0,0,13.585,8.557Z" transform="translate(0 0)" fill="#ff8c00"/>
    <path id="Path_1003" data-name="Path 1003" d="M353.868,36.886a.935.935,0,0,1-1.006,0,.5.5,0,0,0-.712.712,1.579,1.579,0,0,0,.859.413v.532a.5.5,0,0,0,1.006,0v-.607a1.448,1.448,0,0,0,.076-2.717l-.773-.32c-.4-.167-.474-.885.341-.885a.762.762,0,0,1,.5.147.5.5,0,0,0,.712-.712,1.579,1.579,0,0,0-.859-.413v-.533a.5.5,0,0,0-1.006,0v.607a1.448,1.448,0,0,0-.076,2.717l.773.32A.455.455,0,0,1,353.868,36.886Z" transform="translate(-340.933 -30.992)" fill="#ff8c00"/>
  </g>
</svg>
