<svg xmlns="http://www.w3.org/2000/svg" width="25.067" height="25.026" viewBox="0 0 25.067 25.026">
  <path id="Path_1257" data-name="Path 1257" d="M26.442,14.428,25.22,12.291V9.924a1.516,1.516,0,0,0-.738-1.3l-2.061-1.2L21.2,5.319a1.516,1.516,0,0,0-1.3-.738H17.46l-2.086-1.2a1.447,1.447,0,0,0-1.5,0l-2.086,1.2H9.394a1.516,1.516,0,0,0-1.3.738L6.9,7.38,4.737,8.627A1.516,1.516,0,0,0,4,9.924v2.468L2.8,14.453a1.439,1.439,0,0,0,0,1.476L4,17.99v2.468a1.516,1.516,0,0,0,.738,1.3l2.137,1.221,1.2,2.061a1.516,1.516,0,0,0,1.3.738H11.76l2.086,1.2a1.439,1.439,0,0,0,1.476,0l2.086-1.2h2.443a1.516,1.516,0,0,0,1.3-.738l1.221-2.112,2.061-1.2a1.516,1.516,0,0,0,.738-1.3V18.067l1.221-2.137A1.345,1.345,0,0,0,26.442,14.428ZM19.724,14.4l-2.239,2.188.534,3.1a.392.392,0,0,1-.178.407.43.43,0,0,1-.254.076.6.6,0,0,1-.2-.051l-2.748-1.476-2.773,1.476a.435.435,0,0,1-.433-.025.441.441,0,0,1-.178-.407l.534-3.1L9.546,14.4a.441.441,0,0,1-.1-.433.415.415,0,0,1,.331-.28l3.1-.458,1.4-2.824a.429.429,0,0,1,.738,0l1.4,2.824,3.079.458a.415.415,0,0,1,.331.28A.361.361,0,0,1,19.724,14.4Z" transform="translate(-2.1 -2.649)" fill="none" stroke="#000" stroke-width="1"/>
</svg>
