<svg xmlns="http://www.w3.org/2000/svg" width="21.4" height="24" viewBox="0 0 21.4 24">
  <path id="Path_1260" data-name="Path 1260" d="M27.647,15.819a10.531,10.531,0,0,0,0-7.619,1.728,1.728,0,0,0-1.126-3.059,1.625,1.625,0,0,0-.6.113,10.653,10.653,0,0,0-6.568-3.772A1.745,1.745,0,0,0,15.9,1.5,10.745,10.745,0,0,0,9.426,5.273a1.851,1.851,0,0,0-.694-.15,1.8,1.8,0,0,0-1.52.863A1.755,1.755,0,0,0,7.7,8.275a10.313,10.313,0,0,0-.694,3.734,10.533,10.533,0,0,0,.676,3.715,1.74,1.74,0,0,0,1.032,3.153,1.776,1.776,0,0,0,.694-.15A10.655,10.655,0,0,0,15.881,22.5a1.745,1.745,0,0,0,3.453.019,10.724,10.724,0,0,0,6.587-3.753,1.625,1.625,0,0,0,.6.113,1.8,1.8,0,0,0,1.52-.863A1.723,1.723,0,0,0,27.647,15.819ZM25.845,5.7a1.465,1.465,0,0,1,.676-.188,1.36,1.36,0,0,1,.694,2.533,1.4,1.4,0,0,1-.676.188A1.36,1.36,0,0,1,25.845,5.7ZM13.929,12.01a3.687,3.687,0,1,1,3.678,3.678A3.684,3.684,0,0,1,13.929,12.01Zm.094,1.9-3.884,2.233a1.744,1.744,0,0,0-1.426-.732,2.09,2.09,0,0,0-.319.038,9.727,9.727,0,0,1,0-6.83,1.653,1.653,0,0,0,.319.038,1.765,1.765,0,0,0,1.445-.769l3.866,2.252a4.081,4.081,0,0,0-.488,1.914A4.276,4.276,0,0,0,14.023,13.9Zm7.675-1.9a3.868,3.868,0,0,0-.432-1.8l3.9-2.233a1.782,1.782,0,0,0,1.37.657,1.7,1.7,0,0,0,.432-.056,9.935,9.935,0,0,1,0,6.906,1.7,1.7,0,0,0-.432-.056,1.742,1.742,0,0,0-1.389.694l-3.884-2.252A4.494,4.494,0,0,0,21.7,12.01Zm3.565-6.343a1.71,1.71,0,0,0-.3,1.97L21.079,9.87a4.078,4.078,0,0,0-3.265-1.914V3.472A1.76,1.76,0,0,0,19.3,2.252,9.936,9.936,0,0,1,25.263,5.667ZM17.626.394a1.351,1.351,0,1,1-1.351,1.351A1.345,1.345,0,0,1,17.626.394Zm-1.67,1.9a1.8,1.8,0,0,0,1.52,1.182V7.956a4.168,4.168,0,0,0-3.246,1.8L10.345,7.506a1.726,1.726,0,0,0-.3-1.764A9.847,9.847,0,0,1,15.956,2.289Zm-8.425,3.9a1.379,1.379,0,0,1,1.182-.676,1.225,1.225,0,0,1,.676.188,1.354,1.354,0,0,1-.676,2.533,1.225,1.225,0,0,1-.676-.188A1.356,1.356,0,0,1,7.531,6.192ZM9.388,18.315a1.4,1.4,0,0,1-.676.188,1.36,1.36,0,0,1-.694-2.533,1.4,1.4,0,0,1,.676-.188,1.379,1.379,0,0,1,1.182.676A1.334,1.334,0,0,1,9.388,18.315Zm.657-.038a1.747,1.747,0,0,0,.281-1.8l3.884-2.233a4.141,4.141,0,0,0,3.265,1.82v4.485a1.8,1.8,0,0,0-1.52,1.182A9.847,9.847,0,0,1,10.045,18.277Zm7.581,5.348a1.351,1.351,0,1,1,1.351-1.351A1.345,1.345,0,0,1,17.626,23.625Zm1.67-1.876a1.738,1.738,0,0,0-1.482-1.22V16.063a4.054,4.054,0,0,0,3.246-1.9l3.866,2.252a1.75,1.75,0,0,0,.338,1.933A9.819,9.819,0,0,1,19.3,21.749ZM27.7,17.827a1.379,1.379,0,0,1-1.182.676,1.225,1.225,0,0,1-.676-.188,1.35,1.35,0,0,1-.488-1.858,1.379,1.379,0,0,1,1.182-.676,1.225,1.225,0,0,1,.676.188A1.367,1.367,0,0,1,27.7,17.827Z" transform="translate(-6.96)"/>
</svg>
