<svg xmlns="http://www.w3.org/2000/svg" width="11.751" height="18.084" viewBox="0 0 11.751 18.084">
  <g id="payment-method" transform="translate(-84.359)">
    <g id="Group_1760" data-name="Group 1760" transform="translate(84.359)">
      <g id="Group_1759" data-name="Group 1759" transform="translate(0)">
        <path id="Path_1004" data-name="Path 1004" d="M95.634,8.017c-.176-.139-1.734-1.854-2.616-2.654,0,0,0,0,0-.008V1.663A1.666,1.666,0,0,0,91.352,0H85.905a1.551,1.551,0,0,0-1.546,1.546v8.663a1.666,1.666,0,0,0,1.663,1.663h1.986a.117.117,0,0,0,.116-.128l-.086-.736a.114.114,0,0,0-.116-.1h-.236a.117.117,0,0,1-.116-.116V.95a.117.117,0,0,1,.116-.116h3.678a.678.678,0,0,1,.676.676v8.832a.567.567,0,0,1-.413.541h-.008a3.806,3.806,0,0,1-.946-1.295.072.072,0,0,1-.011-.038c-.026-.236-.293-2.526-1.513-2.526a.914.914,0,0,0-.1,0s-.976.083-.169,2.864c0,.008,0,.011,0,.019l.357,3.082a.028.028,0,0,0,0,.015,7.053,7.053,0,0,0,1.483,2.8.121.121,0,0,1,.03.079v.266a.01.01,0,0,1-.011.011H90.65a.418.418,0,0,0-.417.417v1.085a.418.418,0,0,0,.417.417h4.418a.418.418,0,0,0,.417-.417V16.59a.418.418,0,0,0-.417-.417.01.01,0,0,1-.011-.011c.146-1.359.672-6.006.953-6.37a.117.117,0,0,0,.019-.038A1.714,1.714,0,0,0,95.634,8.017ZM86.1,10.8a.1.1,0,0,1-.105.105.67.67,0,0,1-.668-.668V1.5a.67.67,0,0,1,.668-.668A.1.1,0,0,1,86.1.938Z" transform="translate(-84.359)" fill="#ff8c00"/>
      </g>
    </g>
  </g>
</svg>
