<svg xmlns="http://www.w3.org/2000/svg" width="11.383" height="15.177" viewBox="0 0 11.383 15.177">
  <g id="money-tag" transform="translate(-3)">
    <path id="Path_964" data-name="Path 964" d="M7.113,2.846h5.069l1.094-.875A1.093,1.093,0,0,0,13.63.741,1.092,1.092,0,0,0,12.588,0H6.707A1.092,1.092,0,0,0,5.665.741,1.093,1.093,0,0,0,6.018,1.97Z" transform="translate(-0.956)" fill="#ff8c00"/>
    <path id="Path_965" data-name="Path 965" d="M11.313,6H6.07A10.985,10.985,0,0,0,3,13.114c0,2.124,1.124,4.269,3.636,4.269H10.9c2.146,0,3.478-1.636,3.478-4.269A10.985,10.985,0,0,0,11.313,6ZM8.451,11.217h.481a1.342,1.342,0,0,1,.234,2.664v.5a.474.474,0,1,1-.949,0V13.9H7.585a.474.474,0,0,1,0-.949H8.932a.4.4,0,0,0,0-.79H8.451A1.342,1.342,0,0,1,8.217,9.5V9a.474.474,0,1,1,.949,0v.474H9.8a.474.474,0,0,1,0,.949H8.451a.4.4,0,0,0,0,.79Z" transform="translate(0 -2.206)" fill="#ff8c00"/>
  </g>
</svg>
