<svg xmlns="http://www.w3.org/2000/svg" width="10.672" height="14.011" viewBox="0 0 10.672 14.011">
  <path id="Path_1058" data-name="Path 1058" d="M71.672,4.132h-4.1V0H61V14.011H71.672ZM65.926,6.595h.821v.821h-.821ZM63.873,4.953a1.251,1.251,0,0,1-1.231-1.231,1.229,1.229,0,0,1,.821-1.155v-.9h.821v.9A1.229,1.229,0,0,1,65.1,3.722h-.821a.41.41,0,1,0-.41.41A1.251,1.251,0,0,1,65.1,5.363a1.229,1.229,0,0,1-.821,1.155v.9h-.821v-.9a1.229,1.229,0,0,1-.821-1.155h.821a.41.41,0,1,0,.41-.41Zm6.157,7.388H62.642v-.821H70.03Zm0-1.642H62.642V9.879H70.03Zm0-1.642H62.642V8.237H70.03Zm0-1.642H67.568V6.595H70.03Z" transform="translate(-61)" fill="#ff8c00"/>
</svg>
