<svg xmlns="http://www.w3.org/2000/svg" width="12.026" height="17.076" viewBox="0 0 12.026 17.076">
  <g id="_26-royalty_customer" data-name="26-royalty customer" transform="translate(-20 0.923)">
    <g id="Glyph" transform="translate(20 -0.432)">
      <ellipse id="Ellipse_176" data-name="Ellipse 176" cx="3" cy="3.5" rx="3" ry="3.5" transform="translate(1.496 -0.491)" fill="#ff8c00"/>
      <path id="Path_1144" data-name="Path 1144" d="M23.832,46.887a3.1,3.1,0,0,1,.8-3.624,2.651,2.651,0,0,1,1.7-.606,3.632,3.632,0,0,1,1.8.528,3.923,3.923,0,0,1,1.354-.494v-.66A2.034,2.034,0,0,0,27.449,40H22.032A2.034,2.034,0,0,0,20,42.032v5.417a.677.677,0,0,0,.677.677h4.148A4.56,4.56,0,0,1,23.832,46.887Z" transform="translate(-20 -32.896)" fill="#ff8c00"/>
      <path id="Path_1145" data-name="Path 1145" d="M51.931,60.148c-.384-.32-1.431-.917-3.066.2-1.635-1.119-2.682-.522-3.066-.2a2.428,2.428,0,0,0-.623,2.8c.711,1.422,3.421,2.8,3.536,2.859a.339.339,0,0,0,.3,0c.115-.058,2.825-1.437,3.536-2.859A2.427,2.427,0,0,0,51.931,60.148ZM50.9,62.459a.677.677,0,1,1,.677-.677A.677.677,0,0,1,50.9,62.459Z" transform="translate(-40.74 -49.261)" fill="#ff8c00"/>
    </g>
  </g>
</svg>
