<svg xmlns="http://www.w3.org/2000/svg" width="15.382" height="14.284" viewBox="0 0 15.382 14.284">
  <g id="Icon_ionic-md-analytics" data-name="Icon ionic-md-analytics" transform="translate(-2.25 -3.375)">
    <path id="Path_1131" data-name="Path 1131" d="M14.176,12.234l-2.993,4.579a1.631,1.631,0,0,1,.371,1.04,1.648,1.648,0,1,1-3.3,0,1.806,1.806,0,0,1,.027-.306L6.308,16.4a1.638,1.638,0,0,1-1.143.46,1.657,1.657,0,0,1-.81-.213l-2.1,1.97V20.58a1.469,1.469,0,0,0,1.466,1.466H16.167a1.469,1.469,0,0,0,1.466-1.466v-7.3l-2.012-1.335a1.647,1.647,0,0,1-1.445.288Z" transform="translate(0 -4.387)" fill="#ff8c00"/>
    <path id="Path_1132" data-name="Path 1132" d="M5.168,9.176a1.648,1.648,0,0,1,1.648,1.648c0,.072-.007.144-.014.213L8.865,12.19a1.633,1.633,0,0,1,1.044-.371,1.724,1.724,0,0,1,.357.038l3-4.648a1.63,1.63,0,0,1-.306-.954,1.648,1.648,0,1,1,3.3,0,1.791,1.791,0,0,1-.045.388l1.418.947V4.841a1.469,1.469,0,0,0-1.466-1.466H3.716A1.469,1.469,0,0,0,2.25,4.841v7.871L3.623,11.4A1.648,1.648,0,0,1,5.168,9.176Z" fill="#ff8c00"/>
  </g>
</svg>
