<svg xmlns="http://www.w3.org/2000/svg" width="15.419" height="15.418" viewBox="0 0 15.419 15.418">
  <g id="search" transform="translate(0 -0.03)">
    <path id="Path_1141" data-name="Path 1141" d="M3.465,9.718l.8.8L5.631,9.139a5.541,5.541,0,0,1-.982-5.381L6.467,5.575a3.413,3.413,0,0,0,6.184,2L10.588,5.514,9.157,6.945,3.835,1.623V2.83H2.9V.03H5.7V.963H4.495L9.157,5.625l1.431-1.431L13.1,6.71a3.414,3.414,0,0,0-5.342-3.8L6.253,1.4a5.539,5.539,0,1,1,.035,8.4L4.925,11.178l.8.8L2.263,15.446,0,13.184Z" fill="#ff8c00"/>
    <path id="Path_1142" data-name="Path 1142" d="M255.12,405.609h7.466v.933H255.12Z" transform="translate(-247.183 -392.961)" fill="#ff8c00"/>
    <path id="Path_1143" data-name="Path 1143" d="M165.119,465.609h5.6v.933h-5.6Z" transform="translate(-159.982 -451.095)" fill="#ff8c00"/>
  </g>
</svg>
