<svg id="_013-twitter" data-name="013-twitter" xmlns="http://www.w3.org/2000/svg" width="30.667" height="30.667" viewBox="0 0 30.667 30.667">
  <path id="_013-twitter-2" data-name="013-twitter" d="M28.455,0H2.212A2.212,2.212,0,0,0,0,2.212V28.455a2.212,2.212,0,0,0,2.212,2.212H28.455a2.212,2.212,0,0,0,2.212-2.212V2.212A2.212,2.212,0,0,0,28.455,0ZM22.335,11.955q.01.226.01.455A9.946,9.946,0,0,1,12.331,22.424h0a9.962,9.962,0,0,1-5.395-1.581,7.158,7.158,0,0,0,.839.049,7.062,7.062,0,0,0,4.371-1.507,3.523,3.523,0,0,1-3.288-2.445,3.508,3.508,0,0,0,1.59-.06,3.52,3.52,0,0,1-2.824-3.45c0-.016,0-.03,0-.045a3.5,3.5,0,0,0,1.594.44,3.522,3.522,0,0,1-1.09-4.7A9.992,9.992,0,0,0,15.385,12.8a3.521,3.521,0,0,1,6-3.21,7.059,7.059,0,0,0,2.235-.854,3.533,3.533,0,0,1-1.548,1.947,7.019,7.019,0,0,0,2.021-.554,7.152,7.152,0,0,1-1.755,1.823Zm0,0" transform="translate(0)" fill="#f9f9f9"/>
</svg>
