<svg xmlns="http://www.w3.org/2000/svg" width="30.667" height="30.667" viewBox="0 0 30.667 30.667">
  <path id="_001-facebook" data-name="001-facebook" d="M28.455,0H2.212A2.212,2.212,0,0,0,0,2.211V28.455a2.212,2.212,0,0,0,2.212,2.212h14.17V18.807H12.4V14.165h3.983V10.749c0-3.962,2.419-6.118,5.952-6.118a32.757,32.757,0,0,1,3.571.182V8.954H23.469c-1.923,0-2.3.914-2.3,2.255v2.956h4.6l-.6,4.642h-4v11.86h7.282a2.212,2.212,0,0,0,2.212-2.212V2.211A2.212,2.212,0,0,0,28.455,0Zm0,0" transform="translate(0 0)" fill="#f9f9f9"/>
</svg>
