<svg xmlns="http://www.w3.org/2000/svg" width="23.7" height="28.16" viewBox="0 0 23.7 28.16">
  <g id="shield" transform="translate(-33.908)">
    <g id="Group_1758" data-name="Group 1758" transform="translate(33.908 0)">
      <path id="Path_996" data-name="Path 996" d="M57.578,7.248c-.034-.741-.034-1.448-.034-2.155a.992.992,0,0,0-1.01-1.01A13.53,13.53,0,0,1,46.465.278a1.039,1.039,0,0,0-1.414,0A13.53,13.53,0,0,1,34.982,4.083a.992.992,0,0,0-1.01,1.01c0,.707,0,1.414-.034,2.155C33.8,14.32,33.6,24.018,45.421,28.093l.337.067.337-.067C57.881,24.018,57.712,14.354,57.578,7.248Zm-12.628,9.8a1.087,1.087,0,0,1-.707.269h-.034a.948.948,0,0,1-.707-.337L40.37,13.512l1.515-1.347,2.458,2.728L49.8,9.707l1.381,1.482Z" transform="translate(-33.908 0)" fill="#212123"/>
    </g>
  </g>
</svg>
