<svg xmlns="http://www.w3.org/2000/svg" width="24.707" height="38.022" viewBox="0 0 24.707 38.022">
  <g id="payment-method" transform="translate(-84.359)">
    <g id="Group_1760" data-name="Group 1760" transform="translate(84.359)">
      <g id="Group_1759" data-name="Group 1759" transform="translate(0)">
        <path id="Path_1004" data-name="Path 1004" d="M108.066,16.857c-.371-.292-3.646-3.9-5.5-5.579-.008-.008-.008-.008-.008-.016V3.5a3.5,3.5,0,0,0-3.5-3.5H87.61a3.262,3.262,0,0,0-3.251,3.251V21.465a3.5,3.5,0,0,0,3.5,3.5H92.03a.247.247,0,0,0,.245-.268l-.182-1.547a.241.241,0,0,0-.245-.213h-.5a.246.246,0,0,1-.245-.245V2a.246.246,0,0,1,.245-.245h7.734a1.425,1.425,0,0,1,1.421,1.42V21.742a1.193,1.193,0,0,1-.868,1.136h-.016c-.844-.458-1.839-2.415-1.989-2.723a.152.152,0,0,1-.024-.079c-.055-.5-.616-5.311-3.18-5.311a1.923,1.923,0,0,0-.213.008s-2.052.174-.355,6.021c0,.016.008.024.008.039l.75,6.479a.06.06,0,0,0,.008.032,14.829,14.829,0,0,0,3.117,5.9.255.255,0,0,1,.063.166v.56a.021.021,0,0,1-.024.024h-.2a.879.879,0,0,0-.876.876v2.281a.879.879,0,0,0,.876.876h9.288a.879.879,0,0,0,.876-.876V34.881a.879.879,0,0,0-.876-.876.021.021,0,0,1-.024-.024c.308-2.857,1.413-12.627,2-13.392a.247.247,0,0,0,.039-.079C109,20.155,109.51,17.985,108.066,16.857ZM88.013,22.7a.221.221,0,0,1-.221.221,1.408,1.408,0,0,1-1.4-1.4V3.157a1.408,1.408,0,0,1,1.4-1.4.221.221,0,0,1,.221.221Z" transform="translate(-84.359)" fill="#212123"/>
      </g>
    </g>
  </g>
</svg>
