<svg xmlns="http://www.w3.org/2000/svg" width="22.734" height="32.179" viewBox="0 0 22.734 32.179">
  <g id="tap" transform="translate(-0.089)">
    <path id="Path_1000" data-name="Path 1000" d="M21.194,60.533h-.047a1.7,1.7,0,0,0-1.65,1.74v1.356a.489.489,0,1,1-.979,0v-2.5a1.616,1.616,0,1,0-3.217,0v2.654a.489.489,0,1,1-.979,0V60.4a1.693,1.693,0,0,0-1.634-1.751h-.05a1.638,1.638,0,0,0-1.6,1.677v3.809a.489.489,0,1,1-.979,0v-3.7c0-.012,0-.025,0-.037,0-.03,0-.06,0-.09V51.657a1.714,1.714,0,0,0-1.633-1.774A1.714,1.714,0,0,0,6.79,51.656L6.78,66a.49.49,0,0,1-.868.311L4.2,64.223a2.607,2.607,0,0,0-1.84-.973,2.551,2.551,0,0,0-1.917.688l-.019.017-.335.28L6.026,75.645a5.266,5.266,0,0,0,4.624,2.928h6.863a5.535,5.535,0,0,0,5.3-5.717c0-1.667,0-2.917,0-3.924,0-2.692,0-3.682,0-6.648a1.69,1.69,0,0,0-1.624-1.752Zm0,0" transform="translate(0 -46.395)" fill="#212123"/>
    <path id="Path_1001" data-name="Path 1001" d="M49.083,5.433a.489.489,0,0,0,.489-.489,3.947,3.947,0,1,1,7.893,0,.489.489,0,1,0,.979,0,4.926,4.926,0,1,0-9.851,0A.49.49,0,0,0,49.083,5.433Zm0,0" transform="translate(-45.112 0)" fill="#212123"/>
  </g>
</svg>
