<svg xmlns="http://www.w3.org/2000/svg" width="14.114" height="14.114" viewBox="0 0 14.114 14.114">
  <path id="Icon_material-shopping-cart" data-name="Icon material-shopping-cart" d="M5.734,14.291A1.411,1.411,0,1,0,7.146,15.7,1.409,1.409,0,0,0,5.734,14.291ZM1.5,3V4.411H2.911l2.54,5.356L4.5,11.5a1.364,1.364,0,0,0-.176.677,1.416,1.416,0,0,0,1.411,1.411H14.2V12.174H6.031A.175.175,0,0,1,5.854,12l.021-.085.635-1.15h5.257A1.4,1.4,0,0,0,13,10.036l2.526-4.58a.689.689,0,0,0,.085-.339.708.708,0,0,0-.706-.706H4.471L3.808,3ZM12.791,14.291A1.411,1.411,0,1,0,14.2,15.7,1.409,1.409,0,0,0,12.791,14.291Z" transform="translate(-1.5 -3)" fill="#ff8c00"/>
</svg>
