<svg xmlns="http://www.w3.org/2000/svg" width="16.651" height="16.652" viewBox="0 0 16.651 16.652">
  <g id="customer_1_" data-name="customer (1)" transform="translate(-0.024)">
    <g id="Group_1849" data-name="Group 1849" transform="translate(6.855)">
      <g id="Group_1848" data-name="Group 1848">
        <path id="Path_1153" data-name="Path 1153" d="M212.013,0a2.009,2.009,0,0,0-1.984,1.984,2.009,2.009,0,0,0,1.984,1.984,1.984,1.984,0,0,0,0-3.968Z" transform="translate(-210.029 0)" fill="#ff8c00"/>
      </g>
    </g>
    <g id="Group_1851" data-name="Group 1851" transform="translate(5.879 3.968)">
      <g id="Group_1850" data-name="Group 1850">
        <path id="Path_1154" data-name="Path 1154" d="M185.155,122a2.909,2.909,0,0,1-2.166.976,2.981,2.981,0,0,1-2.2-.976,2.9,2.9,0,0,0-.761,1.951v.488a.488.488,0,0,0,.488.488h4.911a.488.488,0,0,0,.488-.488v-.488A2.9,2.9,0,0,0,185.155,122Z" transform="translate(-180.029 -122)" fill="#ff8c00"/>
      </g>
    </g>
    <g id="Group_1853" data-name="Group 1853" transform="translate(0.024 9.449)">
      <g id="Group_1852" data-name="Group 1852" transform="translate(0)">
        <path id="Path_1155" data-name="Path 1155" d="M4.738,296.057l-2.486-4.984a.976.976,0,0,0-1.306-.439l-.65.322a.488.488,0,0,0-.22.656L3,297.465a.488.488,0,0,0,.653.219l.641-.318A.976.976,0,0,0,4.738,296.057Z" transform="translate(-0.024 -290.532)" fill="#ff8c00"/>
      </g>
    </g>
    <g id="Group_1855" data-name="Group 1855" transform="translate(2.919 7.691)">
      <g id="Group_1854" data-name="Group 1854">
        <path id="Path_1156" data-name="Path 1156" d="M102.374,236.843a.973.973,0,0,0-1.288.127l-2.667,3.278a1.179,1.179,0,0,1-.722.312H95.424a.488.488,0,0,1,0-.976h1.951a.976.976,0,0,0,0-1.951H94.819c-.243,0-.364-.154-.556-.322a3.4,3.4,0,0,0-3.029-.741,3.559,3.559,0,0,0-1.5.748l-.014-.012-.706.621,2.773,5.561h5.586a2.939,2.939,0,0,0,2.342-1.171l2.862-4.1A.983.983,0,0,0,102.374,236.843Z" transform="translate(-89.016 -236.479)" fill="#ff8c00"/>
      </g>
    </g>
  </g>
</svg>
