<svg id="world" xmlns="http://www.w3.org/2000/svg" width="14.653" height="14.655" viewBox="0 0 14.653 14.655">
  <g id="Group_1755" data-name="Group 1755" transform="translate(0)">
    <path id="Path_975" data-name="Path 975" d="M20.951,4.941l-.219.07-1.168.1-.33.527-.239-.076-.929-.838-.135-.436-.181-.465L17.166,3.3l-.689-.135-.016.315.675.659.33.389-.371.194-.3-.089-.453-.189.015-.365-.594-.244-.2.859-.6.136.059.479.78.15.135-.766.644.1.3.175h.48l.329.659.872.884-.064.344-.7-.09-1.215.613-.875,1.049-.114.465H15.28l-.585-.27-.568.27.141.6.247-.285.435-.014-.03.538.36.105.36.4.587-.165.671.106.779.209.389.046.66.749L20,11.933l-.823,1.573-.869.4-.33.9-1.258.84-.134.484A7.318,7.318,0,0,0,20.951,4.941Z" transform="translate(-7.539 -1.69)" fill="#ff8c00"/>
    <path id="Path_976" data-name="Path 976" d="M8.173,15.175l-.534-.989.49-1.021-.49-.146-.55-.552-1.218-.273-.4-.846v.5H5.288l-1.05-1.424V9.256L3.468,8l-1.222.218H1.423l-.414-.271.529-.419-.527.122a7.317,7.317,0,0,0,6.32,11.02,7.67,7.67,0,0,0,.919-.064l-.077-.888s.336-1.318.336-1.363S8.173,15.175,8.173,15.175Z" transform="translate(-0.004 -4.018)" fill="#ff8c00"/>
    <path id="Path_977" data-name="Path 977" d="M4.643,2.363l1.3-.181.6-.329.675.195L8.3,1.987l.369-.581.539.089,1.308-.123.361-.4.508-.34L12.1.744,12.365.7A7.3,7.3,0,0,0,3.6,2.664h0ZM9.556.729,10.3.317l.48.278-.7.529-.664.067L9.126,1ZM7.34.789l.33.138L8.1.789l.236.408-1,.262-.48-.281S7.329.876,7.34.789Z" transform="translate(-1.92)" fill="#ff8c00"/>
  </g>
</svg>
