<svg xmlns="http://www.w3.org/2000/svg" width="20.527" height="18.083" viewBox="0 0 20.527 18.083">
  <g id="scroll" transform="translate(0 -30.471)">
    <g id="Group_1804" data-name="Group 1804" transform="translate(4.943 33.742)">
      <g id="Group_1803" data-name="Group 1803" transform="translate(0 0)">
        <path id="Path_1025" data-name="Path 1025" d="M127.759,112.065H123.6a.3.3,0,1,0,0,.6h4.154a.3.3,0,0,0,0-.6Z" transform="translate(-123.304 -112.065)"/>
      </g>
    </g>
    <g id="Group_1806" data-name="Group 1806" transform="translate(12.52 43.857)">
      <g id="Group_1805" data-name="Group 1805" transform="translate(0 0)">
        <path id="Path_1026" data-name="Path 1026" d="M314.83,364.364h-2.224a.3.3,0,0,0,0,.6h2.224a.3.3,0,1,0,0-.6Z" transform="translate(-312.305 -364.364)"/>
      </g>
    </g>
    <g id="Group_1808" data-name="Group 1808" transform="translate(0 30.471)">
      <g id="Group_1807" data-name="Group 1807" transform="translate(0 0)">
        <path id="Path_1027" data-name="Path 1027" d="M19.093,34.715A.3.3,0,0,0,19.5,34.6a7.962,7.962,0,0,0,1.024-3.132.3.3,0,0,0-.324-.324,8.317,8.317,0,0,0-3.607,1.306,4.057,4.057,0,0,0-.5-1.253,1.418,1.418,0,0,0-1.218-.723H1.755a1.657,1.657,0,0,0-1.394.594,2.625,2.625,0,0,0-.27,2.018.3.3,0,0,0,.291.224H3.029a45.021,45.021,0,0,1,.242,6.384c-.006,1.137-.013,2.313.014,3.384a.3.3,0,1,0,.6-.015c-.027-1.062-.02-2.233-.014-3.366a37.314,37.314,0,0,0-.346-7.009c-.036-.166-.076-.331-.124-.494a3.476,3.476,0,0,0-.515-1.118H14.877c.545,0,.932.565,1.181,1.726-.324.228-.641.476-.948.741a12.584,12.584,0,0,0-1.865,2h-8a.3.3,0,1,0,0,.6h7.583a10.749,10.749,0,0,0-.6,1.034H5.244a.3.3,0,0,0,0,.6h6.71A8.2,8.2,0,0,0,11.6,38.81H5.244a.3.3,0,1,0,0,.6h6.219c-.025.143-.044.285-.059.426l-.929.929a.3.3,0,0,0,0,.425.3.3,0,0,0,.425,0l.928-.928a6.952,6.952,0,0,0,1.632-.382,9.548,9.548,0,0,0,1.563-.731,11.5,11.5,0,0,0,1.375-.937c0,.492,0,.991-.006,1.478a48.305,48.305,0,0,0,.2,6.029H6.617a.3.3,0,0,0-.293.368l0,.009v0a2.092,2.092,0,0,1-.151,1.473l0,0a1.117,1.117,0,0,1-.933.375c-.731,0-1.158-1.215-1.3-3.7a.3.3,0,1,0-.6.036c.118,1.987.441,4.267,1.909,4.267H18.366a1.657,1.657,0,0,0,1.394-.594,2.625,2.625,0,0,0,.27-2.018.3.3,0,0,0-.291-.224H17.2a46.65,46.65,0,0,1-.2-6.025c0-.656.007-1.332,0-1.988q.251-.225.492-.466a12.449,12.449,0,0,0,1.354-1.6.3.3,0,0,0-.491-.348,12.019,12.019,0,0,1-2.49,2.574A9.316,9.316,0,0,1,12.67,39.5l-.1.026,5.344-5.343a.3.3,0,0,0-.425-.425L12.143,39.1c.008-.031.015-.062.023-.093A9.013,9.013,0,0,1,13.8,35.8h0l.007-.009a11.974,11.974,0,0,1,2.415-2.371,8.606,8.606,0,0,1,3.66-1.638,7.724,7.724,0,0,1-.907,2.523A.3.3,0,0,0,19.093,34.715ZM2.915,32.705H.631a2.893,2.893,0,0,1-.03-.353,1.5,1.5,0,0,1,.237-.921,1.071,1.071,0,0,1,.9-.358l.2.022.008,0c.4.1.708.581.926,1.422C2.887,32.58,2.9,32.643,2.915,32.705ZM19.49,46.32a1.8,1.8,0,0,1-.206,1.273,1.079,1.079,0,0,1-.918.359H6.644a2.309,2.309,0,0,0,.331-1.633Z" transform="translate(0 -30.471)"/>
      </g>
    </g>
  </g>
</svg>
