<svg xmlns="http://www.w3.org/2000/svg" width="22.528" height="21.326" viewBox="0 0 22.528 21.326">
  <g id="update" transform="translate(0 -13.663)">
    <g id="Group_1792" data-name="Group 1792" transform="translate(9.515 27.604)">
      <g id="Group_1791" data-name="Group 1791">
        <path id="Path_1017" data-name="Path 1017" d="M224.8,330.579a.463.463,0,0,0-.639.146,6.554,6.554,0,0,1-5.58,3.088h-.768l.36-.36a.464.464,0,1,0-.656-.656l-1.152,1.152a.464.464,0,0,0,0,.656l1.152,1.152a.464.464,0,0,0,.656-.656l-.36-.36h.768a7.476,7.476,0,0,0,6.365-3.522A.463.463,0,0,0,224.8,330.579Z" transform="translate(-216.235 -330.508)"/>
      </g>
    </g>
    <g id="Group_1794" data-name="Group 1794" transform="translate(18.18 25.772)">
      <g id="Group_1793" data-name="Group 1793">
        <path id="Path_1018" data-name="Path 1018" d="M413.765,288.885a.464.464,0,0,0-.571.321l-.006.02a.464.464,0,1,0,.891.258l.008-.028A.464.464,0,0,0,413.765,288.885Z" transform="translate(-413.17 -288.868)"/>
      </g>
    </g>
    <g id="Group_1796" data-name="Group 1796" transform="translate(11.402 16.816)">
      <g id="Group_1795" data-name="Group 1795" transform="translate(0 0)">
        <path id="Path_1019" data-name="Path 1019" d="M259.591,85.31a.464.464,0,0,0,0,.927,6.591,6.591,0,0,1,6.583,6.583q0,.08,0,.16a.464.464,0,0,0,.452.475h.011A.464.464,0,0,0,267.1,93q0-.091,0-.182A7.519,7.519,0,0,0,259.591,85.31Z" transform="translate(-259.127 -85.31)"/>
      </g>
    </g>
    <g id="Group_1798" data-name="Group 1798" transform="translate(0.001 13.663)">
      <g id="Group_1797" data-name="Group 1797" transform="translate(0 0)">
        <path id="Path_1020" data-name="Path 1020" d="M19.406,16.786a10.593,10.593,0,0,0-7.54-3.123.464.464,0,0,0,0,.927A9.736,9.736,0,1,1,2.13,24.326V23.8l.411.411A.464.464,0,1,0,3.2,23.56l-1.2-1.2a.464.464,0,0,0-.656,0l-1.2,1.2a.464.464,0,0,0,.656.656L1.2,23.8v.521a10.663,10.663,0,0,0,18.2,7.54,10.663,10.663,0,0,0,0-15.08Z" transform="translate(-0.001 -13.663)"/>
      </g>
    </g>
    <g id="Group_1800" data-name="Group 1800" transform="translate(6.495 20.107)">
      <g id="Group_1799" data-name="Group 1799" transform="translate(0 0)">
        <path id="Path_1021" data-name="Path 1021" d="M152.979,160.119a.464.464,0,1,0,0,.927,3.292,3.292,0,1,1-3.292,3.292v-.473l.36.36a.464.464,0,1,0,.656-.656l-1.152-1.152a.464.464,0,0,0-.656,0l-1.152,1.152a.464.464,0,1,0,.656.656l.36-.36v.473a4.219,4.219,0,1,0,4.219-4.219Z" transform="translate(-147.609 -160.119)"/>
      </g>
    </g>
  </g>
</svg>
