<svg xmlns="http://www.w3.org/2000/svg" width="17.603" height="17.604" viewBox="0 0 17.603 17.604">
  <g id="customer-review" transform="translate(0)">
    <path id="Path_966" data-name="Path 966" d="M211,242.547A1.547,1.547,0,1,0,212.547,241,1.549,1.549,0,0,0,211,242.547Zm0,0" transform="translate(-203.745 -232.714)" fill="#ff8c00"/>
    <path id="Path_967" data-name="Path 967" d="M169.094,361A3.1,3.1,0,0,0,166,364.094v2.1h6.189v-2.1A3.1,3.1,0,0,0,169.094,361Zm0,0" transform="translate(-160.293 -348.588)" fill="#ff8c00"/>
    <path id="Path_968" data-name="Path 968" d="M49.094,272.547a1.547,1.547,0,1,0-1.547,1.547A1.549,1.549,0,0,0,49.094,272.547Zm0,0" transform="translate(-44.418 -261.683)" fill="#ff8c00"/>
    <path id="Path_969" data-name="Path 969" d="M379.094,272.547a1.547,1.547,0,1,0-1.547,1.547A1.549,1.549,0,0,0,379.094,272.547Zm0,0" transform="translate(-363.072 -261.683)" fill="#ff8c00"/>
    <path id="Path_970" data-name="Path 970" d="M2.613,0,1.828,1.85,0,2.108,1.319,3.36l-.3,1.831,1.6-.835,1.6.835-.3-1.831L5.192,2.108,3.417,1.85Zm0,0" transform="translate(0)" fill="#ff8c00"/>
    <path id="Path_971" data-name="Path 971" d="M184.383,1.85l-.8-1.85-.785,1.85L181,2.108l1.284,1.253-.3,1.831,1.6-.835,1.6.835-.3-1.831,1.284-1.253Zm0,0" transform="translate(-174.777)" fill="#ff8c00"/>
    <path id="Path_972" data-name="Path 972" d="M363.579,0l-.785,1.85L361,2.108l1.284,1.253-.3,1.831,1.6-.835,1.6.835-.3-1.831,1.319-1.253-1.809-.258Zm0,0" transform="translate(-348.588)" fill="#ff8c00"/>
    <path id="Path_973" data-name="Path 973" d="M369.728,391a3.068,3.068,0,0,0-1.826.607,4.084,4.084,0,0,1,.278,1.456v2.1h4.676v-1.066A3.124,3.124,0,0,0,369.728,391Zm0,0" transform="translate(-355.253 -377.557)" fill="#ff8c00"/>
    <path id="Path_974" data-name="Path 974" d="M0,394.094v1.066H4.676v-2.1a4.084,4.084,0,0,1,.278-1.456A3.068,3.068,0,0,0,3.129,391,3.124,3.124,0,0,0,0,394.094Zm0,0" transform="translate(0 -377.557)" fill="#ff8c00"/>
  </g>
</svg>
