<svg xmlns="http://www.w3.org/2000/svg" width="16.89" height="17.182" viewBox="0 0 16.89 17.182">
  <g id="shop" transform="translate(-4.008)">
    <g id="Group_1802" data-name="Group 1802" transform="translate(4.008)">
      <g id="Group_1801" data-name="Group 1801" transform="translate(0)">
        <path id="Path_1022" data-name="Path 1022" d="M342.322,336h-2.33v3.786h2.33Zm-.582,3.2h-1.165v-2.621h1.165Z" transform="translate(-327.761 -323.769)"/>
        <path id="Path_1023" data-name="Path 1023" d="M51.855,264H44.866a.874.874,0,0,0-.874.874v5.533h8.737v-5.533A.874.874,0,0,0,51.855,264Zm.291,5.824H44.574v-3.786h7.572Zm0-4.368H44.574v-.582a.291.291,0,0,1,.291-.291h6.989a.291.291,0,0,1,.291.291Z" transform="translate(-42.536 -254.39)"/>
        <path id="Path_1024" data-name="Path 1024" d="M20.878,3.978c0-.008-.006-.016-.009-.024s0-.013-.007-.018L19.442,1.381V.291A.291.291,0,0,0,19.151,0H5.464a.291.291,0,0,0-.291.291v1.1L4.032,3.959v0a.028.028,0,0,1,0,.01.287.287,0,0,0-.019.093s0,.008,0,.013V17.182H20.9V4.072A.285.285,0,0,0,20.878,3.978Zm-.766-.192H16.74l-.679-2.039H18.98Zm-3.873.582V7.281a1.165,1.165,0,0,1-1.165,1.165H13.909a1.165,1.165,0,0,1-1.165-1.165V4.368Zm-3.495-.582V1.747h2.7l.679,2.039ZM5.755.582H18.86v.582H5.755Zm3.025,3.2.679-2.039h2.7V3.786Zm3.382.582V6.989a1.458,1.458,0,0,1-1.456,1.456h-.582A1.458,1.458,0,0,1,8.667,6.989V4.368ZM5.653,1.747H8.845L8.166,3.786H4.747ZM4.59,4.368H8.085v2.5A1.574,1.574,0,0,1,6.512,8.445H6.046A1.458,1.458,0,0,1,4.59,6.989ZM19.151,16.6H15.656V11.649h3.495Zm0-5.533H15.656v-.349a.524.524,0,0,1,.524-.524h2.446a.524.524,0,0,1,.524.524ZM20.316,16.6h-.582V10.717A1.107,1.107,0,0,0,18.627,9.61H16.181a1.107,1.107,0,0,0-1.107,1.107V16.6H4.59V8.413a2.031,2.031,0,0,0,1.456.615h.466A2.153,2.153,0,0,0,8.35,7.992a2.039,2.039,0,0,0,1.773,1.036h.582a2.039,2.039,0,0,0,1.683-.89,1.747,1.747,0,0,0,1.521.89h1.165a1.747,1.747,0,0,0,1.521-.89,2.039,2.039,0,0,0,1.683.89h.582a2.031,2.031,0,0,0,1.456-.615Zm0-9.61A1.458,1.458,0,0,1,18.86,8.445h-.582a1.458,1.458,0,0,1-1.456-1.456V4.368h3.495Z" transform="translate(-4.008)"/>
      </g>
    </g>
  </g>
</svg>
