<svg xmlns="http://www.w3.org/2000/svg" width="43.511" height="43.512" viewBox="0 0 43.511 43.512">
  <g id="customer-review_1_" data-name="customer-review (1)" transform="translate(0)">
    <path id="Path_1110" data-name="Path 1110" d="M211,244.824A3.824,3.824,0,1,0,214.824,241,3.829,3.829,0,0,0,211,244.824Zm0,0" transform="translate(-193.068 -220.519)" fill="#ff8c00"/>
    <path id="Path_1111" data-name="Path 1111" d="M173.648,361A7.657,7.657,0,0,0,166,368.649v5.184h15.3v-5.184A7.657,7.657,0,0,0,173.648,361Zm0,0" transform="translate(-151.893 -330.321)" fill="#ff8c00"/>
    <path id="Path_1112" data-name="Path 1112" d="M53.648,274.824a3.824,3.824,0,1,0-3.824,3.824A3.829,3.829,0,0,0,53.648,274.824Zm0,0" transform="translate(-42.09 -247.969)" fill="#ff8c00"/>
    <path id="Path_1113" data-name="Path 1113" d="M383.649,274.824a3.824,3.824,0,1,0-3.824,3.824A3.829,3.829,0,0,0,383.649,274.824Zm0,0" transform="translate(-344.046 -247.969)" fill="#ff8c00"/>
    <path id="Path_1114" data-name="Path 1114" d="M6.459,0,4.519,4.572,0,5.21l3.26,3.1-.75,4.527,3.949-2.064,3.949,2.064-.75-4.527,3.175-3.1L8.446,4.572Zm0,0" transform="translate(0)" fill="#ff8c00"/>
    <path id="Path_1115" data-name="Path 1115" d="M189.361,4.572,187.374,0l-1.939,4.572L181,5.21l3.175,3.1-.749,4.527,3.949-2.064,3.949,2.064-.75-4.527,3.175-3.1Zm0,0" transform="translate(-165.618)" fill="#ff8c00"/>
    <path id="Path_1116" data-name="Path 1116" d="M367.374,0l-1.939,4.572L361,5.21l3.175,3.1-.75,4.527,3.949-2.064,3.949,2.064-.75-4.527,3.26-3.1-4.472-.637Zm0,0" transform="translate(-330.321)" fill="#ff8c00"/>
    <path id="Path_1117" data-name="Path 1117" d="M372.415,391a7.583,7.583,0,0,0-4.512,1.5,10.1,10.1,0,0,1,.688,3.6v5.184h11.558v-2.634A7.721,7.721,0,0,0,372.415,391Zm0,0" transform="translate(-336.637 -357.771)" fill="#ff8c00"/>
    <path id="Path_1118" data-name="Path 1118" d="M0,398.649v2.634H11.558V396.1a10.1,10.1,0,0,1,.688-3.6A7.584,7.584,0,0,0,7.733,391,7.721,7.721,0,0,0,0,398.649Zm0,0" transform="translate(0 -357.771)" fill="#ff8c00"/>
  </g>
</svg>
