<svg id="tax" xmlns="http://www.w3.org/2000/svg" width="26.206" height="27.588" viewBox="0 0 26.206 27.588">
  <path id="Path_1121" data-name="Path 1121" d="M127.681,146.68a7.559,7.559,0,1,0,7.559-7.559A7.559,7.559,0,0,0,127.681,146.68Zm4.606-2.952a1.006,1.006,0,1,1-.295.711A1.014,1.014,0,0,1,132.287,143.728Zm5.9,5.9a1.006,1.006,0,1,1,.295-.711A1.014,1.014,0,0,1,138.192,149.631Zm-.014-5.89a1.006,1.006,0,0,1,0,1.423l-4.454,4.454A1.006,1.006,0,1,1,132.3,148.2l4.454-4.454A1.007,1.007,0,0,1,138.178,143.741Z" transform="translate(-116.593 -126.809)" fill="#212123"/>
  <path id="Path_1122" data-name="Path 1122" d="M22.161,20.179a9.4,9.4,0,0,1,9.571-9.188q.262,0,.521.014V.966A.987.987,0,0,0,31.247,0H14.091a.987.987,0,0,0-1.006.966V26.622a.987.987,0,0,0,1.006.966H26.078A9.07,9.07,0,0,1,22.161,20.179ZM18.775,5.131H25.9a.967.967,0,1,1,0,1.932H18.775a.967.967,0,1,1,0-1.932Zm0,5.131H25.9a.967.967,0,1,1,0,1.932H18.775a.967.967,0,1,1,0-1.932Zm1.782,7.063H18.775a.967.967,0,1,1,0-1.932h1.782a.967.967,0,1,1,0,1.932Z" transform="translate(-13.085 0)" fill="#212123"/>
</svg>
