<svg xmlns="http://www.w3.org/2000/svg" width="38.072" height="29" viewBox="0 0 38.072 29">
  <g id="megaphone_1_" data-name="megaphone (1)" transform="translate(0 -61)">
    <path id="Path_1163" data-name="Path 1163" d="M422.106,139.839a1.115,1.115,0,0,1,.5-1.5l4.462-2.231a1.116,1.116,0,0,1,1,2l-4.462,2.231A1.116,1.116,0,0,1,422.106,139.839Z" transform="translate(-390.609 -69.417)" fill="#212123"/>
    <path id="Path_1164" data-name="Path 1164" d="M427.067,290.352l-4.462-2.231a1.116,1.116,0,1,1,1-2l4.462,2.231a1.116,1.116,0,0,1-1,2Z" transform="translate(-390.609 -208.278)" fill="#212123"/>
    <path id="Path_1165" data-name="Path 1165" d="M427.571,228.225h-4.462a1.115,1.115,0,1,1,0-2.231h4.462a1.115,1.115,0,1,1,0,2.231Z" transform="translate(-390.615 -152.725)" fill="#212123"/>
    <path id="Path_1166" data-name="Path 1166" d="M194.649,61a1.115,1.115,0,0,0-1.115,1.115v1.593A32.681,32.681,0,0,1,180,68.533v11.7a32.681,32.681,0,0,1,13.533,4.825v1.593a1.115,1.115,0,1,0,2.231,0V62.115A1.115,1.115,0,0,0,194.649,61Z" transform="translate(-166.615)" fill="#212123"/>
    <path id="Path_1167" data-name="Path 1167" d="M37.64,339.146c-1.027-1.849-1.914-4.02-1.231-5.931L30.9,332.6a7.1,7.1,0,0,1-1.2-.248,17.162,17.162,0,0,0-.675,6.459c.017.448.035.866.035,1.248a1.115,1.115,0,0,0,1.115,1.115h6.692a1.116,1.116,0,0,0,1-1.614Z" transform="translate(-26.829 -251.176)" fill="#212123"/>
    <path id="Path_1168" data-name="Path 1168" d="M0,171.483a4.849,4.849,0,0,0,4.318,4.824l6.836.76V165.9l-6.836.76A4.849,4.849,0,0,0,0,171.483Z" transform="translate(0 -97.099)" fill="#212123"/>
  </g>
</svg>
