<svg xmlns="http://www.w3.org/2000/svg" width="40" height="40" viewBox="0 0 40 40">
  <g id="Group_1940" data-name="Group 1940" transform="translate(-18 -18)">
    <path id="Path_1231" data-name="Path 1231" d="M33,31.75H28.538C29.531,26.212,31.663,23,33,23s3.475,3.212,4.469,8.75h5.056C41.388,24.25,38.15,18,33,18s-8.394,6.25-9.531,13.75H18l7.5,7.5Z" fill="#ff8c00"/>
    <path id="Path_1232" data-name="Path 1232" d="M36.285,68.75c-1.325,0-3.475-3.213-4.469-8.75H26.76c1.137,7.5,4.375,13.75,9.525,13.75a6.406,6.406,0,0,0,4.269-1.681,25.075,25.075,0,0,1-2.275-5C37.535,68.162,36.847,68.75,36.285,68.75Z" transform="translate(-3.285 -15.75)" fill="#ff8c00"/>
    <path id="Path_1233" data-name="Path 1233" d="M63.439,23c1.25,0,3.325,3.006,4.375,8.2a7.35,7.35,0,0,1,5-.45C71.564,23.694,68.376,18,63.439,18a6.413,6.413,0,0,0-4.269,1.681,25.082,25.082,0,0,1,2.275,5C62.189,23.587,62.876,23,63.439,23Z" transform="translate(-15.439)" fill="#ff8c00"/>
    <path id="Path_1234" data-name="Path 1234" d="M61.375,56.05c-1.05,5.194-3.125,8.2-4.375,8.2s-3.475-3.213-4.463-8.75H57L49.5,48,42,55.5h5.475C48.613,63,51.85,69.25,57,69.25c4.938,0,8.125-5.694,9.375-12.744a7.35,7.35,0,0,1-5-.45Z" transform="translate(-9 -11.25)" fill="#ff8c00"/>
    <circle id="Ellipse_271" data-name="Ellipse 271" cx="2.5" cy="2.5" r="2.5" transform="translate(53 35)" fill="#ff8c00"/>
  </g>
</svg>
