<svg xmlns="http://www.w3.org/2000/svg" width="37.5" height="50" viewBox="0 0 37.5 50">
  <g id="money-tag" transform="translate(-3)">
    <path id="Path_964" data-name="Path 964" d="M10.582,9.375h16.7l3.6-2.883A3.6,3.6,0,0,0,32.053,2.44,3.6,3.6,0,0,0,28.62,0H9.245A3.6,3.6,0,0,0,5.812,2.44,3.6,3.6,0,0,0,6.976,6.49Z" transform="translate(2.818)" fill="#fafafa"/>
    <path id="Path_965" data-name="Path 965" d="M30.385,6H13.115C7.425,11.585,3,21.385,3,29.438c0,7,3.7,14.063,11.979,14.063H29.042C36.11,43.5,40.5,38.11,40.5,29.438,40.5,21.385,36.075,11.585,30.385,6ZM20.958,23.188h1.583a4.422,4.422,0,0,1,.771,8.775V33.6a1.563,1.563,0,0,1-3.125,0v-1.56H18.1a1.563,1.563,0,0,1,0-3.125h4.438a1.3,1.3,0,0,0,0-2.6H20.958a4.422,4.422,0,0,1-.771-8.775V15.9a1.563,1.563,0,1,1,3.125,0v1.563H25.4a1.562,1.562,0,1,1,0,3.125H20.958a1.3,1.3,0,0,0,0,2.6Z" transform="translate(0 6.5)" fill="#fafafa"/>
  </g>
</svg>
