<svg id="Group_1236" data-name="Group 1236" xmlns="http://www.w3.org/2000/svg" xmlns:xlink="http://www.w3.org/1999/xlink" width="20" height="20" viewBox="0 0 20 20">
  <defs>
    <clipPath id="clip-path-phone">
      <path id="Clip_1235" data-name="Clip 1235" d="M10,0A10.011,10.011,0,0,1,20,10a6.9,6.9,0,0,1-3.252,5.95c-1.3.714-3.512,1.251-6.391-.672a18.833,18.833,0,0,1-2.92-2.605l0,0c-.017-.02-.035-.039-.053-.058s-.04-.036-.059-.055l0,0c-.684-.71-1.349-1.438-1.987-2.189-1.672-1.965-1.451-4.6.262-5.689a1.4,1.4,0,0,1,.22-.147A9.809,9.809,0,0,1,7.361,4.2c.652-.15,1.923,2.852,1.111,3.113a7.812,7.812,0,0,0-1.505.427c-.224.169-.117.583.1.842.583.686,1.44,1.448,2.117,2.117l.057.056.056.056h0c.67.677,1.433,1.534,2.117,2.117.26.221.675.326.843.1a7.769,7.769,0,0,0,.428-1.5c.261-.813,3.262.459,3.113,1.111a9.915,9.915,0,0,1-.34,1.54,1.277,1.277,0,0,1-.146.22,2.89,2.89,0,0,1-.974.937,3.779,3.779,0,0,0,1.812-.466A5.681,5.681,0,0,0,18.766,10,8.766,8.766,0,1,0,10,18.768.616.616,0,1,1,10,20,10,10,0,1,1,10,0Z" fill="none"/>
    </clipPath>
  </defs>
  <path id="Clip_1235-2" data-name="Clip 1235" d="M10,0A10.011,10.011,0,0,1,20,10a6.9,6.9,0,0,1-3.252,5.95c-1.3.714-3.512,1.251-6.391-.672a18.833,18.833,0,0,1-2.92-2.605l0,0c-.017-.02-.035-.039-.053-.058s-.04-.036-.059-.055l0,0c-.684-.71-1.349-1.438-1.987-2.189-1.672-1.965-1.451-4.6.262-5.689a1.4,1.4,0,0,1,.22-.147A9.809,9.809,0,0,1,7.361,4.2c.652-.15,1.923,2.852,1.111,3.113a7.812,7.812,0,0,0-1.505.427c-.224.169-.117.583.1.842.583.686,1.44,1.448,2.117,2.117l.057.056.056.056h0c.67.677,1.433,1.534,2.117,2.117.26.221.675.326.843.1a7.769,7.769,0,0,0,.428-1.5c.261-.813,3.262.459,3.113,1.111a9.915,9.915,0,0,1-.34,1.54,1.277,1.277,0,0,1-.146.22,2.89,2.89,0,0,1-.974.937,3.779,3.779,0,0,0,1.812-.466A5.681,5.681,0,0,0,18.766,10,8.766,8.766,0,1,0,10,18.768.616.616,0,1,1,10,20,10,10,0,1,1,10,0Z" fill="none"/>
  <g id="Group_1236-2" data-name="Group 1236" clip-path="url(#clip-path-phone)">
    <path id="Fill_1234" data-name="Fill 1234" d="M0,0H30V30H0Z" transform="translate(-5 -5)" fill="#fff"/>
  </g>
</svg>
