<svg id="programming" xmlns="http://www.w3.org/2000/svg" width="18.176" height="13.298" viewBox="0 0 18.176 13.298">
  <path id="Path_1123" data-name="Path 1123" d="M15.6,68.7H2.572A2.576,2.576,0,0,0,0,71.273v8.153A2.576,2.576,0,0,0,2.572,82H15.6a2.576,2.576,0,0,0,2.572-2.573V71.273A2.576,2.576,0,0,0,15.6,68.7ZM6.6,72.793,3.89,75.5,6.3,77.906a.532.532,0,1,1-.753.753L2.761,75.875a.532.532,0,0,1,0-.753L5.843,72.04a.533.533,0,0,1,.753.753Zm4.392-1.253L8.173,79.513a.533.533,0,1,1-1-.355l2.816-7.973a.533.533,0,1,1,1,.355Zm4.427,4.036-3.082,3.082a.533.533,0,0,1-.753-.753L14.286,75.2l-2.407-2.407a.532.532,0,0,1,.753-.753l2.783,2.783a.532.532,0,0,1,0,.753Z" transform="translate(0 -68.7)" fill="#e2e2e2"/>
</svg>
