<svg xmlns="http://www.w3.org/2000/svg" width="14.512" height="14.512" viewBox="0 0 14.512 14.512">
  <g id="customer-review_1_" data-name="customer-review (1)" transform="translate(0)">
    <path id="Path_1110" data-name="Path 1110" d="M211,242.275A1.275,1.275,0,1,0,212.275,241,1.277,1.277,0,0,0,211,242.275Zm0,0" transform="translate(-205.019 -234.169)" fill="#e2e2e2"/>
    <path id="Path_1111" data-name="Path 1111" d="M168.551,361A2.554,2.554,0,0,0,166,363.551v1.729h5.1v-1.729A2.554,2.554,0,0,0,168.551,361Zm0,0" transform="translate(-161.295 -350.768)" fill="#e2e2e2"/>
    <path id="Path_1112" data-name="Path 1112" d="M48.551,272.275a1.275,1.275,0,1,0-1.275,1.275A1.277,1.277,0,0,0,48.551,272.275Zm0,0" transform="translate(-44.696 -263.319)" fill="#e2e2e2"/>
    <path id="Path_1113" data-name="Path 1113" d="M378.551,272.275a1.275,1.275,0,1,0-1.275,1.275A1.277,1.277,0,0,0,378.551,272.275Zm0,0" transform="translate(-365.343 -263.319)" fill="#e2e2e2"/>
    <path id="Path_1114" data-name="Path 1114" d="M2.154,0,1.507,1.525,0,1.737,1.087,2.77.837,4.28l1.317-.688,1.317.688-.25-1.51L4.28,1.737,2.817,1.525Zm0,0" transform="translate(0)" fill="#e2e2e2"/>
    <path id="Path_1115" data-name="Path 1115" d="M183.788,1.525,183.126,0l-.647,1.525L181,1.737l1.059,1.033-.25,1.51,1.317-.688,1.317.688-.25-1.51,1.059-1.033Zm0,0" transform="translate(-175.87)" fill="#e2e2e2"/>
    <path id="Path_1116" data-name="Path 1116" d="M363.126,0l-.647,1.525L361,1.737l1.059,1.033-.25,1.51,1.317-.688,1.317.688-.25-1.51,1.087-1.033-1.491-.213Zm0,0" transform="translate(-350.768)" fill="#e2e2e2"/>
    <path id="Path_1117" data-name="Path 1117" d="M369.407,391a2.529,2.529,0,0,0-1.5.5,3.367,3.367,0,0,1,.229,1.2v1.729h3.855v-.879A2.575,2.575,0,0,0,369.407,391Zm0,0" transform="translate(-357.475 -379.918)" fill="#e2e2e2"/>
    <path id="Path_1118" data-name="Path 1118" d="M0,393.551v.879H3.855V392.7a3.367,3.367,0,0,1,.23-1.2,2.529,2.529,0,0,0-1.5-.5A2.575,2.575,0,0,0,0,393.551Zm0,0" transform="translate(0 -379.918)" fill="#e2e2e2"/>
  </g>
</svg>
