<svg xmlns="http://www.w3.org/2000/svg" width="15.977" height="15.977" viewBox="0 0 15.977 15.977">
  <path id="Icon_material-shopping-cart" data-name="Icon material-shopping-cart" d="M6.293,15.782a1.6,1.6,0,1,0,1.6,1.6A1.6,1.6,0,0,0,6.293,15.782ZM1.5,3V4.6H3.1l2.876,6.063L4.9,12.618a1.545,1.545,0,0,0-.2.767,1.6,1.6,0,0,0,1.6,1.6h9.586v-1.6H6.629a.2.2,0,0,1-.2-.2l.024-.1.719-1.3h5.951a1.59,1.59,0,0,0,1.4-.823l2.86-5.185a.78.78,0,0,0,.1-.383.8.8,0,0,0-.8-.8H4.863L4.112,3ZM14.282,15.782a1.6,1.6,0,1,0,1.6,1.6A1.6,1.6,0,0,0,14.282,15.782Z" transform="translate(-1.5 -3)" fill="#e2e2e2"/>
</svg>
