<svg xmlns="http://www.w3.org/2000/svg" width="14.389" height="15.045" viewBox="0 0 14.389 15.045">
  <g id="sync-circular-arrows" transform="translate(0)">
    <path id="Path_1105" data-name="Path 1105" d="M26.022,172.4l-.48-1.7a4.6,4.6,0,0,1-7.13-.588l.277-.171a.395.395,0,0,0-.036-.692l-2.486-1.2a.395.395,0,0,0-.566.349l-.042,2.76a.395.395,0,0,0,.6.342l.133-.082a7.115,7.115,0,0,0,10.342,1.646A1.01,1.01,0,0,1,26.022,172.4Z" transform="translate(-15.103 -159.552)" fill="#e2e2e2"/>
    <path id="Path_1106" data-name="Path 1106" d="M9.04,8.51a4.677,4.677,0,0,1,4.25-5.186v.042A.395.395,0,0,0,13.9,3.7l2.326-1.485a.395.395,0,0,0,0-.665L13.9.062a.395.395,0,0,0-.607.333V.83A7.124,7.124,0,0,0,6.526,8.345s.525-.509.882-.509C7.708,7.835,7.762,7.894,9.04,8.51Z" transform="translate(-6.515)" fill="#e2e2e2"/>
    <path id="Path_1107" data-name="Path 1107" d="M185.005,42.133a.4.4,0,0,0-.272-.3l-.285-.086a7.177,7.177,0,0,0-3.335-8.642,1.027,1.027,0,0,1,.027.213,1.014,1.014,0,0,1-.471.859l-1.343.858a4.669,4.669,0,0,1,2.733,5.991l-.17-.051a.395.395,0,0,0-.494.485l.75,2.656a.394.394,0,0,0,.637.192l2.095-1.8A.4.4,0,0,0,185.005,42.133Z" transform="translate(-170.625 -31.441)" fill="#e2e2e2"/>
  </g>
</svg>
