<svg xmlns="http://www.w3.org/2000/svg" width="16.502" height="16.504" viewBox="0 0 16.502 16.504">
  <g id="world" transform="translate(0)">
    <g id="Group_1755" data-name="Group 1755" transform="translate(0)">
      <path id="Path_975" data-name="Path 975" d="M21.812,5.164l-.247.078L20.25,5.36l-.371.593-.27-.086-1.046-.944-.152-.491-.2-.523-.658-.59-.776-.152-.018.355.76.742.372.438-.418.219-.34-.1-.51-.213.017-.411-.669-.275-.222.967-.675.153.067.54.879.169.152-.862L16.893,5l.337.2h.541l.37.742.982,1-.072.387-.792-.1-1.368.691L15.907,9.09l-.128.523h-.354l-.659-.3-.64.3.159.675.278-.321.49-.015-.034.606.406.119.405.455.661-.186.755.119.877.236.438.051.743.843,1.434.843-.927,1.771-.979.455-.371,1.012-1.416.946-.151.545a8.241,8.241,0,0,0,4.917-12.6Z" transform="translate(-6.707 -1.504)" fill="#e2e2e2"/>
      <path id="Path_976" data-name="Path 976" d="M9.2,16.14l-.6-1.114.552-1.149L8.6,13.711l-.619-.622-1.372-.308-.455-.953v.566h-.2l-1.183-1.6V9.474l-.867-1.41L2.529,8.31H1.6L1.135,8l.6-.472-.594.137a8.241,8.241,0,0,0,7.118,12.41,8.639,8.639,0,0,0,1.035-.072l-.086-1s.379-1.485.379-1.535S9.2,16.14,9.2,16.14Z" transform="translate(-0.004 -3.575)" fill="#e2e2e2"/>
      <path id="Path_977" data-name="Path 977" d="M4.775,2.661l1.466-.2.676-.37.76.219,1.215-.067.416-.654.607.1,1.474-.138.406-.448.573-.382.81.122.3-.045A8.225,8.225,0,0,0,3.6,3h0ZM10.308.821l.843-.464.541.313-.783.6-.748.075-.337-.219Zm-2.5.068.372.155L8.671.888l.265.46-1.124.3-.541-.316S7.8.987,7.812.888Z" transform="translate(-1.709)" fill="#e2e2e2"/>
    </g>
  </g>
</svg>
