<svg xmlns="http://www.w3.org/2000/svg" width="19.882" height="26" viewBox="0 0 19.882 26">
  <g id="XMLID_381_" transform="translate(-60)">
    <path id="XMLID_407_" d="M60,0V6.118H79.882V0Zm8.412,3.824H63.059V2.294h5.353Z" fill="#ff8c00"/>
    <path id="XMLID_382_" d="M60,168.353H79.882V150H60Zm15.294-16.059h1.529v1.529H75.294Zm0,3.059h1.529v1.529H75.294Zm0,3.059h1.529v1.529H75.294Zm0,3.059h1.529v4.588H75.294Zm-3.059-9.176h1.529v1.529H72.235Zm0,3.059h1.529v1.529H72.235Zm0,3.059h1.529v1.529H72.235Zm0,3.059h1.529V163H72.235Zm0,3.059h1.529v1.529H72.235Zm-3.059-12.235h1.529v1.529H69.176Zm0,3.059h1.529v1.529H69.176Zm0,3.059h1.529v1.529H69.176Zm0,3.059h1.529V163H69.176Zm0,3.059h1.529v1.529H69.176Zm-3.059-12.235h1.529v1.529H66.118Zm0,3.059h1.529v1.529H66.118Zm0,3.059h1.529v1.529H66.118Zm0,3.059h1.529V163H66.118Zm-3.059-9.176h1.529v1.529H63.059Zm0,3.059h1.529v1.529H63.059Zm0,3.059h1.529v1.529H63.059Zm0,3.059h1.529V163H63.059Zm0,3.059h4.588v1.529H63.059Z" transform="translate(0 -142.353)" fill="#ff8c00"/>
  </g>
</svg>
