<svg id="invoice_1_" data-name="invoice (1)" xmlns="http://www.w3.org/2000/svg" width="12.233" height="16.333" viewBox="0 0 12.233 16.333">
  <g id="Group_1827" data-name="Group 1827" transform="translate(0)">
    <path id="Path_1097" data-name="Path 1097" d="M76.023,0H64.747a.479.479,0,0,0-.479.479V14.445a.479.479,0,0,0,.14.338l1.41,1.41a.479.479,0,0,0,.677,0l1.071-1.071,1.071,1.071a.478.478,0,0,0,.677,0l1.071-1.071,1.071,1.071a.478.478,0,0,0,.677,0L73.2,15.122l1.071,1.071a.478.478,0,0,0,.677,0l1.41-1.41a.478.478,0,0,0,.14-.338V.479A.478.478,0,0,0,76.023,0ZM69.906,3.594V3.041a.479.479,0,0,1,.957,0v.547h.547a.479.479,0,1,1,0,.957H70.043a.547.547,0,0,0,0,1.093h.683a1.5,1.5,0,0,1,.137,3v.553a.479.479,0,0,1-.957,0V8.645h-.547a.479.479,0,1,1,0-.957h1.367a.547.547,0,1,0,0-1.093h-.683a1.5,1.5,0,0,1-.137-3Zm3.041,8.639H67.822a.479.479,0,1,1,0-.957h5.125a.479.479,0,1,1,0,.957Z" transform="translate(-64.268)" fill="#e2e2e2"/>
  </g>
</svg>
