<svg xmlns="http://www.w3.org/2000/svg" width="15.89" height="16.379" viewBox="0 0 15.89 16.379">
  <g id="recycle-sign" transform="translate(-4.545 0.001)">
    <path id="Path_1059" data-name="Path 1059" d="M8.649,47.425a.961.961,0,0,0-1.478.026,8.06,8.06,0,0,0-1.986,7.207l-.5.145c-.275.08-.133.521.317.985l1.929,1.986c.451.464.893.321.988-.318l.385-2.6c.095-.64-.124-1.072-.489-.966l-.661.192a5.973,5.973,0,0,1,1.33-5.02A1.34,1.34,0,0,0,8.649,47.425Z" transform="translate(0 -44.558)" fill="#ff8c00"/>
    <path id="Path_1060" data-name="Path 1060" d="M107.324,205.9a9.505,9.505,0,0,0,1.9.195,7.664,7.664,0,0,0,5.246-1.975l.493.475c.273.262.637-.03.815-.651l.761-2.662c.178-.622-.166-.934-.768-.7l-2.444.96c-.6.237-.921.59-.714.79l.376.362a5.992,5.992,0,0,1-4.918,1.261,1.339,1.339,0,0,0-1.5.674A.962.962,0,0,0,107.324,205.9Z" transform="translate(-96.472 -189.719)" fill="#ff8c00"/>
    <path id="Path_1061" data-name="Path 1061" d="M148.919,6.868a8.081,8.081,0,0,0-4.528-5.709L144.619.5c.126-.363-.29-.577-.929-.478l-2.735.424c-.639.1-.779.542-.312.99l1.895,1.817c.467.448.92.6,1.012.331l.166-.48a6.008,6.008,0,0,1,3.127,3.9,1.339,1.339,0,0,0,1.242,1.082A.962.962,0,0,0,148.919,6.868Z" transform="translate(-128.513 0)" fill="#ff8c00"/>
  </g>
</svg>
