<svg xmlns="http://www.w3.org/2000/svg" width="24.1" height="23.585" viewBox="0 0 24.1 23.585">
  <g id="Group_1946" data-name="Group 1946" transform="translate(-4.001 -957.347)">
    <path id="Path_1258" data-name="Path 1258" d="M27.045,957.781l1.048,5.763a.548.548,0,0,1-.516.622H26.005v6.279h.524a.544.544,0,0,1,.524.524v8.383a.545.545,0,0,1-.524.524h-.524v1.056H24.958v-1.056H7.144v1.056H6.1v-1.056H5.573a.545.545,0,0,1-.524-.524v-8.383a.544.544,0,0,1,.524-.524H6.1v-6.262l-1.572-.016a.548.548,0,0,1-.516-.622l1.048-5.763a.541.541,0,0,1,.516-.434H26.529a.582.582,0,0,1,.516.434Zm-2.088,6.385H7.144v6.279H24.958Zm1.048,7.327H6.1v7.335H26.005Zm-7.057,1.2a3.15,3.15,0,0,1,1.007.573.636.636,0,0,1,.115.875,4.121,4.121,0,0,1-.974,1.1,5.137,5.137,0,0,1-2.587.851,1.828,1.828,0,0,0-.426.5,5.379,5.379,0,0,1,.221.851.524.524,0,1,1-1.031.18,3.84,3.84,0,0,0-.589-1.482,3.238,3.238,0,0,0-.843-.311,2.806,2.806,0,0,1-.884-.131,1.726,1.726,0,0,1-.72-.786,1.233,1.233,0,0,0-.229-.426.55.55,0,0,1,.164-.843,2.478,2.478,0,0,1,2.374.1,1.946,1.946,0,0,1,.778,1.547c.076.085.143.178.213.27a2.689,2.689,0,0,1,.295-.262,3.5,3.5,0,0,1,1.735-2.6,1.955,1.955,0,0,1,1.383,0Z" transform="translate(0 0)" fill="#00112c"/>
  </g>
</svg>
