<svg xmlns="http://www.w3.org/2000/svg" width="32.486" height="23.587" viewBox="0 0 32.486 23.587">
  <g id="_10_Leader" data-name="10 Leader" transform="translate(-3.066 -10.982)">
    <path id="Path_1259" data-name="Path 1259" d="M35.542,24.866a5.619,5.619,0,0,0-3.493-4.491,3.368,3.368,0,1,0-4.148,0,5.581,5.581,0,0,0-2.518,1.982,8.967,8.967,0,0,0-3.467-2,5.052,5.052,0,1,0-5.216,0,8.967,8.967,0,0,0-3.467,2,5.581,5.581,0,0,0-2.518-1.982,3.368,3.368,0,1,0-4.148,0,5.619,5.619,0,0,0-3.493,4.491,1.142,1.142,0,0,0,1.133,1.282h6.574a8.933,8.933,0,0,0-.455,2.807v.561a1.123,1.123,0,0,0,1.123,1.123h4.565l-.561,3.274a.561.561,0,0,0,.814.591l3.041-1.6,3.04,1.6a.561.561,0,0,0,.814-.591L22.6,30.639h4.567a1.123,1.123,0,0,0,1.123-1.123v-.561a8.933,8.933,0,0,0-.455-2.807h6.574a1.142,1.142,0,0,0,1.135-1.282Zm-7.813-7.138a2.245,2.245,0,1,1,2.245,2.245A2.245,2.245,0,0,1,27.728,17.728Zm-12.35-1.684a3.929,3.929,0,1,1,3.929,3.929,3.929,3.929,0,0,1-3.929-3.929ZM6.4,17.728a2.245,2.245,0,1,1,2.245,2.245A2.245,2.245,0,0,1,6.4,17.728Zm4.833,7.3L4.188,25.01a4.491,4.491,0,0,1,8.247-1.828,10.374,10.374,0,0,0-1.2,1.844Zm8.339,6.75a.561.561,0,0,0-.522,0l-2.295,1.206.437-2.556a.561.561,0,0,0-.162-.5l-.106-.1-.148-.144,0-.005-1.594-1.553,2.563-.375a.561.561,0,0,0,.422-.306l1.147-2.322,1.147,2.32a.561.561,0,0,0,.422.306l2.563.375-1.594,1.553,0,.005c-.13.127-.225.217-.252.245v0h0l0,0h0a.58.58,0,0,0-.153.542c.005.019.011.036.017.056l.419,2.45Zm7.6-2.259H23.624c.363-.353.809-.79,1.367-1.337l.047-.046h0l.008-.01a.587.587,0,0,0,.088-.112.528.528,0,0,0,.022-.056.545.545,0,0,0,.035-.086.571.571,0,0,0,.015-.148v0a.573.573,0,0,0-.027-.155.561.561,0,0,0-.065-.133l0-.007-.1-.112c-.013-.011-.03-.018-.045-.028-.24-.168-.035-.02-3.632-.594L19.813,23.6a.584.584,0,0,0-1.006,0l-1.52,3.076c-2.021.427-4.217.189-3.861,1.179a.561.561,0,0,0,.154.277l.25.243.008.009L15,29.517H11.449v-.561a7.859,7.859,0,1,1,15.718,0Zm7.241-4.491H27.386a10.244,10.244,0,0,0-1.2-1.844,4.491,4.491,0,0,1,8.243,1.836.022.022,0,0,1-.016.008Z"/>
  </g>
</svg>
