<svg xmlns="http://www.w3.org/2000/svg" width="22.415" height="22.413" viewBox="0 0 22.415 22.413">
  <path id="Path_1246" data-name="Path 1246" d="M35.468,25.257a11.2,11.2,0,0,0-17.489-9.274,2.28,2.28,0,0,0-3.164,3.256A11.2,11.2,0,0,0,30.683,34.431a2.28,2.28,0,0,0,3.111-3.3,11.127,11.127,0,0,0,1.674-5.878Zm-15.03,1.752c-.038-.566-.064-1.145-.064-1.753a25,25,0,0,1,.255-3.631,25,25,0,0,1,3.632-.255c.61,0,1.2.022,1.765.06a2.287,2.287,0,0,0,2.055,2.039c.039.577.067,1.168.067,1.788a25,25,0,0,1-.255,3.632,25,25,0,0,1-3.632.255c-.624,0-1.218-.027-1.8-.067a2.284,2.284,0,0,0-2.025-2.067Zm1.073,2.268a1.319,1.319,0,1,1-1.319-1.319,1.319,1.319,0,0,1,1.319,1.319Zm5.467-8.08A1.319,1.319,0,1,1,28.3,22.516,1.319,1.319,0,0,1,26.978,21.2Zm2.058,2.157a2.291,2.291,0,0,0,1.329-1.2c2.6.757,4.141,1.953,4.141,3.1,0,1.354-2.136,2.773-5.622,3.462a25.781,25.781,0,0,0,.228-3.46c0-.653-.031-1.284-.076-1.9Zm5.223-.323a10.038,10.038,0,0,0-3.682-1.8c0-.011,0-.021,0-.032A2.285,2.285,0,0,0,28.3,18.915h-.015a10,10,0,0,0-1.8-3.658A10.273,10.273,0,0,1,34.259,23.031Zm-10-8.018c1.143,0,2.336,1.53,3.093,4.109a2.292,2.292,0,0,0-1.22,1.352c-.608-.043-1.234-.067-1.873-.067a25.781,25.781,0,0,0-3.463.228C21.488,17.15,22.909,15.013,24.262,15.013ZM15.253,17.53a1.319,1.319,0,1,1,1.063,1.532A1.319,1.319,0,0,1,15.253,17.53Zm.335,2.3a2.246,2.246,0,0,0,.965.217A2.287,2.287,0,0,0,18.8,18.167h0a2.268,2.268,0,0,0-.212-1.431,10.2,10.2,0,0,1,3.454-1.478,12.062,12.062,0,0,0-2.24,5.536,12.061,12.061,0,0,0-5.533,2.238,10.173,10.173,0,0,1,1.322-3.2Zm4.053,1.966a25.72,25.72,0,0,0-.228,3.463c0,.635.03,1.25.072,1.853a2.292,2.292,0,0,0-1.372,1.236c-2.571-.759-4.094-1.948-4.094-3.089C14.018,23.9,16.155,22.483,19.64,21.794Zm-5.377,5.684a9.978,9.978,0,0,0,3.647,1.8v0a2.284,2.284,0,0,0,2.282,2.282l.038,0a10.077,10.077,0,0,0,1.805,3.7A10.273,10.273,0,0,1,14.264,27.478Zm10,8.022c-1.15,0-2.348-1.55-3.105-4.158a2.29,2.29,0,0,0,1.188-1.313c.624.045,1.26.076,1.918.076a25.729,25.729,0,0,0,3.462-.228C27.035,33.363,25.613,35.5,24.262,35.5Zm9.09-2.657a1.32,1.32,0,1,1-1.064-1.532,1.32,1.32,0,0,1,1.064,1.532Zm-.327-2.3a2.278,2.278,0,0,0-2.974,3.15,10.2,10.2,0,0,1-3.568,1.558,12.066,12.066,0,0,0,2.241-5.536,12.07,12.07,0,0,0,5.532-2.237,10.186,10.186,0,0,1-1.232,3.064Z" transform="translate(-13.053 -14.05)"/>
</svg>
