<svg xmlns="http://www.w3.org/2000/svg" width="13.639" height="14.359" viewBox="0 0 13.639 14.359">
  <g id="tax" transform="translate(-13.085 -1)">
    <path id="Path_1121" data-name="Path 1121" d="M127.681,143.055a3.934,3.934,0,1,0,3.934-3.934A3.934,3.934,0,0,0,127.681,143.055Zm2.4-1.536a.523.523,0,1,1-.154.37A.528.528,0,0,1,130.078,141.519Zm3.073,3.073a.523.523,0,1,1,.153-.37A.528.528,0,0,1,133.152,144.591Zm-.007-3.066a.524.524,0,0,1,0,.741l-2.318,2.318a.524.524,0,0,1-.741-.741l2.318-2.318A.524.524,0,0,1,133.145,141.526Z" transform="translate(-108.825 -131.713)" fill="#ff8c00"/>
    <path id="Path_1122" data-name="Path 1122" d="M17.809,10.5A4.89,4.89,0,0,1,22.79,5.72q.137,0,.271.007V.5a.514.514,0,0,0-.524-.5H13.609a.514.514,0,0,0-.524.5V13.856a.514.514,0,0,0,.524.5h6.239A4.721,4.721,0,0,1,17.809,10.5ZM16.047,2.671h3.709a.5.5,0,1,1,0,1.005H16.047a.5.5,0,1,1,0-1.005Zm0,2.671h3.709a.5.5,0,1,1,0,1.005H16.047a.5.5,0,1,1,0-1.005Zm.927,3.676h-.927a.5.5,0,1,1,0-1.005h.927a.5.5,0,1,1,0,1.005Z" transform="translate(0 1)" fill="#ff8c00"/>
  </g>
</svg>
