<svg xmlns="http://www.w3.org/2000/svg" width="30.667" height="30.667" viewBox="0 0 30.667 30.667">
  <path id="_002-twitter" data-name="002-twitter" d="M28.455,0H2.212A2.212,2.212,0,0,0,0,2.212V28.455a2.212,2.212,0,0,0,2.212,2.212H28.455a2.212,2.212,0,0,0,2.212-2.212V2.212A2.212,2.212,0,0,0,28.455,0ZM17.312,23.992c-3.773.065-5.2-2.688-5.2-4.626V13.708H10.356V11.471A5.3,5.3,0,0,0,13.764,6.8a.137.137,0,0,1,.125-.129h2.536v4.412h3.467v2.623H16.414V19.1a1.519,1.519,0,0,0,1.667,1.707,4.076,4.076,0,0,0,1.4-.3l.833,2.47a4.611,4.611,0,0,1-3,1.015Zm0,0" transform="translate(0)" fill="#f9f9f9"/>
</svg>
